<?xml version="1.0" encoding="UTF-8"?>
<!DOCTYPE svg PUBLIC "-//W3C//DTD SVG 1.1//EN" "http://www.w3.org/Graphics/SVG/1.1/DTD/svg11.dtd">
<svg xmlns="http://www.w3.org/2000/svg" version="1.1" width="512px" height="512px" style="shape-rendering:geometricPrecision; text-rendering:geometricPrecision; image-rendering:optimizeQuality; fill-rule:evenodd; clip-rule:evenodd" xmlns:xlink="http://www.w3.org/1999/xlink">
<g><path style="opacity:1" fill="#3798d9" d="M 245.5,-0.5 C 252.167,-0.5 258.833,-0.5 265.5,-0.5C 284.698,5.20034 296.531,17.867 301,37.5C 301.333,92.5 301.667,147.5 302,202.5C 302.833,206 305,208.167 308.5,209C 364.528,209.179 420.528,209.679 476.5,210.5C 477.871,212.141 479.704,213.141 482,213.5C 482.765,213.43 483.265,213.097 483.5,212.5C 497.943,219.268 507.276,230.268 511.5,245.5C 511.5,252.167 511.5,258.833 511.5,265.5C 504.688,288.305 489.354,300.305 465.5,301.5C 413.002,300.335 360.335,300.168 307.5,301C 306.244,301.417 305.577,302.25 305.5,303.5C 303.864,304.749 302.697,306.416 302,308.5C 301.667,363.5 301.333,418.5 301,473.5C 296.531,493.133 284.698,505.8 265.5,511.5C 258.833,511.5 252.167,511.5 245.5,511.5C 222.695,504.688 210.695,489.354 209.5,465.5C 210.665,413.002 210.832,360.335 210,307.5C 209.303,304.427 207.47,302.427 204.5,301.5C 203.893,301.624 203.56,301.957 203.5,302.5C 148.237,301.671 92.9039,301.171 37.5,301C 28.4007,299.784 20.734,295.95 14.5,289.5C 11.8715,285.537 8.87148,281.871 5.5,278.5C 2.72339,274.494 0.723393,270.16 -0.5,265.5C -0.5,258.833 -0.5,252.167 -0.5,245.5C 5.20034,226.302 17.867,214.469 37.5,210C 92.5,209.667 147.5,209.333 202.5,209C 206,208.167 208.167,206 209,202.5C 209.333,147.5 209.667,92.5 210,37.5C 214.469,17.867 226.302,5.20034 245.5,-0.5 Z"/></g>
<g><path style="opacity:0.086" fill="#78692e" d="M 476.5,210.5 C 478.833,211.167 481.167,211.833 483.5,212.5C 483.265,213.097 482.765,213.43 482,213.5C 479.704,213.141 477.871,212.141 476.5,210.5 Z"/></g>
<g><path style="opacity:0.902" fill="#969563" d="M 5.5,278.5 C 8.87148,281.871 11.8715,285.537 14.5,289.5C 10.3717,286.71 7.37167,283.043 5.5,278.5 Z"/></g>
<g><path style="opacity:0.733" fill="#26f067" d="M 465.5,301.5 C 413.166,301.333 360.832,301.5 308.5,302C 307.473,302.513 306.473,303.013 305.5,303.5C 305.577,302.25 306.244,301.417 307.5,301C 360.335,300.168 413.002,300.335 465.5,301.5 Z"/></g>
<g><path style="opacity:0.486" fill="#7dcf85" d="M 203.5,302.5 C 203.56,301.957 203.893,301.624 204.5,301.5C 207.47,302.427 209.303,304.427 210,307.5C 210.832,360.335 210.665,413.002 209.5,465.5C 209.667,413.166 209.5,360.832 209,308.5C 208.294,305.393 206.461,303.393 203.5,302.5 Z"/></g>
</svg>
