
<svg xmlns="http://www.w3.org/2000/svg" version="1.1" width="500px" height="500px" style="shape-rendering:geometricPrecision; text-rendering:geometricPrecision; image-rendering:optimizeQuality; fill-rule:evenodd; clip-rule:evenodd" xmlns:xlink="http://www.w3.org/1999/xlink">
    <g><path style="opacity:0.995" fill="#000000" d="M 243.5,73.5 C 286.531,73.4195 317.697,92.4195 337,130.5C 353.788,175.919 343.955,214.419 307.5,246C 273.077,269.395 237.41,271.395 200.5,252C 163.392,227.265 148.558,192.765 156,148.5C 168.759,104.223 197.926,79.2233 243.5,73.5 Z"/></g>
    <g><path style="opacity:0.995" fill="#000000" d="M 239.5,297.5 C 326.043,296.777 395.71,330.277 448.5,398C 390.224,471.121 314.224,503.787 220.5,496C 150.451,486.574 93.9515,454.074 51,398.5C 50.3333,397.833 50.3333,397.167 51,396.5C 99.0596,335.717 161.893,302.717 239.5,297.5 Z"/></g>
</svg>
