<?xml version="1.0" encoding="UTF-8"?>
<!DOCTYPE svg PUBLIC "-//W3C//DTD SVG 1.1//EN" "http://www.w3.org/Graphics/SVG/1.1/DTD/svg11.dtd">
<svg xmlns="http://www.w3.org/2000/svg" version="1.1" width="6000px" height="6000px" style="shape-rendering:geometricPrecision; text-rendering:geometricPrecision; image-rendering:optimizeQuality; fill-rule:evenodd; clip-rule:evenodd" xmlns:xlink="http://www.w3.org/1999/xlink">
<g><path style="opacity:0.991" fill="#000000" d="M 2592.5,-0.5 C 2863.83,-0.5 3135.17,-0.5 3406.5,-0.5C 3407.06,865.413 3407.06,1731.41 3406.5,2597.5C 3482.41,2597.98 3558.24,2597.98 3634,2597.5C 3698.73,2598.89 3763.4,2599.89 3828,2600.5C 3861.6,2600.71 3895.26,2600.38 3929,2599.5C 3957.65,2601.57 3986.32,2601.9 4015,2600.5C 4048.6,2601.34 4082.26,2602.01 4116,2602.5C 4151.93,2602.66 4187.93,2602.33 4224,2601.5C 4228.08,2602.3 4232.25,2602.8 4236.5,2603C 4286.2,2602.51 4336.04,2603.01 4386,2604.5C 4430.26,2604.78 4474.6,2604.44 4519,2603.5C 4533.11,2604.82 4547.45,2605.49 4562,2605.5C 4599.7,2604.82 4637.54,2605.15 4675.5,2606.5C 4750.26,2607.01 4825.1,2607.01 4900,2606.5C 4921.09,2607.51 4942.26,2608.18 4963.5,2608.5C 4999.6,2608.65 5035.77,2608.32 5072,2607.5C 5076.08,2608.3 5080.25,2608.8 5084.5,2609C 5121.4,2609.83 5158.24,2609.66 5195,2608.5C 5252.09,2609.31 5309.09,2610.31 5366,2611.5C 5366.33,2610.83 5366.67,2610.17 5367,2609.5C 5381.11,2610.82 5395.45,2611.49 5410,2611.5C 5465.54,2611.83 5520.87,2611.83 5576,2611.5C 5602.27,2612.22 5628.6,2612.89 5655,2613.5C 5657.63,2613.42 5659.96,2612.75 5662,2611.5C 5676.11,2612.82 5690.45,2613.49 5705,2613.5C 5733.31,2612.67 5761.48,2612.83 5789.5,2614C 5859.65,2614.48 5929.65,2614.98 5999.5,2615.5C 5999.5,2887.17 5999.5,3158.83 5999.5,3430.5C 5465.27,3426.77 4930.93,3422.77 4396.5,3418.5C 4394.81,3418.73 4393.14,3419.06 4391.5,3419.5C 4347.66,3418.84 4303.83,3418.17 4260,3417.5C 4209.67,3417.5 4159.33,3417.5 4109,3417.5C 4065.14,3416.84 4021.31,3416.17 3977.5,3415.5C 3927.18,3415.5 3876.85,3415.5 3826.5,3415.5C 3782.83,3414.83 3739.17,3414.17 3695.5,3413.5C 3644.83,3413.5 3594.16,3413.5 3543.5,3413.5C 3499.66,3412.84 3455.83,3412.17 3412,3411.5C 3410.23,3412.23 3408.4,3412.57 3406.5,3412.5C 3406.71,4275.02 3406.71,5137.35 3406.5,5999.5C 3135.17,5999.5 2863.83,5999.5 2592.5,5999.5C 2591.39,5135.28 2591.39,4271.11 2592.5,3407C 2583.14,3406.78 2573.81,3406.28 2564.5,3405.5C 2514.15,3405.51 2463.82,3405.51 2413.5,3405.5C 2369.5,3404.83 2325.5,3404.17 2281.5,3403.5C 2231.32,3403.51 2181.15,3403.51 2131,3403.5C 2087.17,3402.83 2043.34,3402.16 1999.5,3401.5C 1948.98,3401.52 1898.48,3401.52 1848,3401.5C 1804.17,3400.83 1760.34,3400.16 1716.5,3399.5C 1666.14,3399.52 1615.8,3399.52 1565.5,3399.5C 1043.4,3395.42 521.396,3391.42 -0.5,3387.5C -0.5,3116.17 -0.5,2844.83 -0.5,2573.5C 80.0785,2573.93 160.578,2573.93 241,2573.5C 261.757,2574.55 282.591,2575.22 303.5,2575.5C 339.932,2575.65 376.432,2575.31 413,2574.5C 415.74,2575.28 418.574,2575.78 421.5,2576C 459.738,2576.83 497.905,2576.66 536,2575.5C 564.652,2577.52 593.319,2577.86 622,2576.5C 649.958,2577.17 677.958,2577.84 706,2578.5C 706.945,2578.09 707.612,2577.43 708,2576.5C 722.112,2577.82 736.445,2578.49 751,2578.5C 806.264,2578.86 861.597,2578.86 917,2578.5C 942.768,2579.24 968.602,2579.91 994.5,2580.5C 1025.93,2580.76 1057.43,2580.43 1089,2579.5C 1153.76,2581.05 1218.59,2582.05 1283.5,2582.5C 1316.93,2582.72 1350.43,2582.38 1384,2581.5C 1412.65,2583.54 1441.32,2583.87 1470,2582.5C 1503.93,2583.33 1537.93,2584 1572,2584.5C 1607.6,2584.67 1643.27,2584.33 1679,2583.5C 1683.75,2584.31 1688.58,2584.81 1693.5,2585C 1743.04,2584.55 1792.71,2585.05 1842.5,2586.5C 1886.26,2586.79 1930.09,2586.45 1974,2585.5C 1974.5,2586 1975,2586.5 1975.5,2587C 2027.48,2586.59 2079.31,2587.09 2131,2588.5C 2136.08,2588.49 2141.08,2588.15 2146,2587.5C 2199.43,2588.45 2252.93,2589.12 2306.5,2589.5C 2344.2,2588.73 2382.04,2589.06 2420,2590.5C 2455.6,2590.67 2491.27,2590.33 2527,2589.5C 2531.41,2590.3 2535.91,2590.8 2540.5,2591C 2557.5,2591.5 2574.5,2591.67 2591.5,2591.5C 2591.46,1727.48 2591.79,863.478 2592.5,-0.5 Z"/></g>
</svg>
