<?xml version="1.0" encoding="UTF-8"?>
<!DOCTYPE svg PUBLIC "-//W3C//DTD SVG 1.1//EN" "http://www.w3.org/Graphics/SVG/1.1/DTD/svg11.dtd">
<svg xmlns="http://www.w3.org/2000/svg" version="1.1" width="512px" height="512px" style="shape-rendering:geometricPrecision; text-rendering:geometricPrecision; image-rendering:optimizeQuality; fill-rule:evenodd; clip-rule:evenodd" xmlns:xlink="http://www.w3.org/1999/xlink">
<g><path style="opacity:1" fill="#3c97d8" d="M 511.5,248.5 C 511.5,253.167 511.5,257.833 511.5,262.5C 474.047,316.112 425.714,356.945 366.5,385C 292.512,416.333 218.512,416.333 144.5,385C 138.28,382.059 132.28,378.892 126.5,375.5C 125,373.821 123.167,372.488 121,371.5C 120.601,371.728 120.435,372.062 120.5,372.5C 71.9427,344.946 31.6094,308.279 -0.5,262.5C -0.5,257.833 -0.5,253.167 -0.5,248.5C 39.6744,191.172 92.0078,148.672 156.5,121C 251.583,87.6788 340.25,100.012 422.5,158C 457.441,183.113 487.108,213.28 511.5,248.5 Z M 351.5,303.5 C 350.263,304.965 349.263,306.632 348.5,308.5C 318.877,353.665 277.543,370.165 224.5,358C 181.574,342.734 156.407,312.567 149,267.5C 146.208,222.249 163.708,187.416 201.5,163C 246.412,139.95 288.412,144.284 327.5,176C 363.688,213.111 371.688,255.611 351.5,303.5 Z"/></g>
<g><path style="opacity:0.827" fill="#83b362" d="M 253.5,197.5 C 250.772,198.205 247.939,198.872 245,199.5C 244.601,199.272 244.435,198.938 244.5,198.5C 247.287,197.523 250.287,197.19 253.5,197.5 Z"/></g>
<g><path style="opacity:1" fill="#3e97d7" d="M 205.5,225.5 C 205.435,225.938 205.601,226.272 206,226.5C 207.879,224.473 209.046,222.14 209.5,219.5C 218.404,207.935 230.071,200.935 244.5,198.5C 244.435,198.938 244.601,199.272 245,199.5C 247.939,198.872 250.772,198.205 253.5,197.5C 290.531,198.856 310.864,218.189 314.5,255.5C 312.104,286.059 296.104,305.226 266.5,313C 230.666,316.48 207.833,300.98 198,266.5C 195.439,251.753 197.939,238.086 205.5,225.5 Z"/></g>
<g><path style="opacity:0.816" fill="#9ca053" d="M 209.5,219.5 C 209.046,222.14 207.879,224.473 206,226.5C 205.601,226.272 205.435,225.938 205.5,225.5C 206.475,223.205 207.808,221.205 209.5,219.5 Z"/></g>
<g><path style="opacity:0.953" fill="#b6b95b" d="M 351.5,303.5 C 351.938,303.435 352.272,303.601 352.5,304C 351.717,306.118 350.384,307.618 348.5,308.5C 349.263,306.632 350.263,304.965 351.5,303.5 Z"/></g>
<g><path style="opacity:0.043" fill="#93af5c" d="M 126.5,375.5 C 124.181,375.008 122.181,374.008 120.5,372.5C 120.435,372.062 120.601,371.728 121,371.5C 123.167,372.488 125,373.821 126.5,375.5 Z"/></g>
</svg>
