<?xml version="1.0"?>
<svg xmlns="http://www.w3.org/2000/svg" xmlns:xlink="http://www.w3.org/1999/xlink" xmlns:svgjs="http://svgjs.com/svgjs" version="1.1" width="512" height="512" x="0" y="0" viewBox="0 0 512 512" style="enable-background:new 0 0 512 512" xml:space="preserve" class=""><g><path xmlns="http://www.w3.org/2000/svg" d="m384.53125 257.066406h-113.53125v-17.132812c0-9.441406 7.636719-17.132813 17.132812-17.132813h32.132813c25.804687 0 47.132813-20.851562 47.132813-47.132812 0-25.753907-20.804688-47.132813-47.132813-47.132813h-128.53125c-9.460937 0-17.132813-7.65625-17.132813-17.132812 0-9.441406 7.636719-17.132813 17.132813-17.132813h24.097656c30.421875-.003906 55.167969-24.75 55.167969-55.167969v-24.101562c0-8.285156-6.714844-15-15-15s-15 6.714844-15 15v24.101562c0 13.875-11.289062 25.164063-25.167969 25.164063h-24.097656c-25.808594 0-47.132813 20.855469-47.132813 47.132813 0 25.800781 20.84375 47.132812 47.132813 47.132812h128.53125c9.460937 0 17.132813 7.660156 17.132813 17.132812 0 9.441407-7.636719 17.136719-17.132813 17.136719h-32.132813c-25.804687 0-47.132812 20.851563-47.132812 47.132813v17.132812h-113.53125c-70.285156 0-127.46875 57.179688-127.46875 127.464844s57.183594 127.46875 127.46875 127.46875c59.582031 0 95.886719-38.363281 110.699219-64.265625h35.664062c14.78125 25.84375 51.070313 64.265625 110.699219 64.265625 70.285156 0 127.46875-57.183594 127.46875-127.46875s-57.183594-127.464844-127.46875-127.464844zm0 224.933594c-37.410156 0-71.984375-21.867188-88.082031-55.710938-2.484375-5.226562-7.757813-8.554687-13.542969-8.554687h-53.8125c-5.789062 0-11.058594 3.328125-13.546875 8.554687-16.09375 33.84375-50.667969 55.710938-88.078125 55.710938-53.746094 0-97.46875-43.722656-97.46875-97.46875 0-53.742188 43.722656-97.464844 97.46875-97.464844h257.0625c53.746094 0 97.46875 43.722656 97.46875 97.464844 0 53.746094-43.722656 97.46875-97.46875 97.46875zm0 0" fill="#ffffff" data-original="#000000" style="" class=""/><path xmlns="http://www.w3.org/2000/svg" d="m159.601562 369.53125h-17.132812v-17.132812c0-8.28125-6.71875-15-15-15-8.285156 0-15 6.71875-15 15v17.132812h-17.136719c-8.28125 0-15 6.71875-15 15 0 8.285156 6.71875 15 15 15h17.132813v17.132812c0 8.285157 6.71875 15 15 15 8.285156 0 15-6.714843 15-15v-17.132812h17.136718c8.28125 0 15-6.714844 15-15 0-8.28125-6.71875-15-15-15zm0 0" fill="#ffffff" data-original="#000000" style="" class=""/><path xmlns="http://www.w3.org/2000/svg" d="m399.53125 344.367188c0 8.285156-6.714844 15-15 15-8.28125 0-15-6.714844-15-15 0-8.285157 6.71875-15 15-15 8.285156 0 15 6.714843 15 15zm0 0" fill="#ffffff" data-original="#000000" style="" class=""/><path xmlns="http://www.w3.org/2000/svg" d="m359.367188 384.53125c0 8.285156-6.714844 15-15 15-8.285157 0-15-6.714844-15-15 0-8.28125 6.714843-15 15-15 8.285156 0 15 6.71875 15 15zm0 0" fill="#ffffff" data-original="#000000" style="" class=""/><path xmlns="http://www.w3.org/2000/svg" d="m399.53125 424.699219c0 8.285156-6.714844 15-15 15-8.28125 0-15-6.714844-15-15 0-8.285157 6.71875-15 15-15 8.285156 0 15 6.714843 15 15zm0 0" fill="#ffffff" data-original="#000000" style="" class=""/><path xmlns="http://www.w3.org/2000/svg" d="m439.699219 384.53125c0 8.285156-6.714844 15-15 15-8.285157 0-15-6.714844-15-15 0-8.28125 6.714843-15 15-15 8.285156 0 15 6.71875 15 15zm0 0" fill="#ffffff" data-original="#000000" style="" class=""/></g></svg>
