<?xml version="1.0" encoding="UTF-8"?>
<svg xmlns="http://www.w3.org/2000/svg" version="1.1" width="256px" height="256px" style="shape-rendering:geometricPrecision; text-rendering:geometricPrecision; image-rendering:optimizeQuality; fill-rule:evenodd; clip-rule:evenodd" xmlns:xlink="http://www.w3.org/1999/xlink">
<g><path style="opacity:1" fill="#3a97d9" d="M 129.5,43.5 C 131.587,42.4154 132.92,40.7488 133.5,38.5C 150.354,21.3267 170.687,14.3267 194.5,17.5C 196.343,18.2829 198.343,18.9495 200.5,19.5C 201.107,19.3764 201.44,19.0431 201.5,18.5C 230.579,26.9846 248.579,45.9846 255.5,75.5C 255.5,83.1667 255.5,90.8333 255.5,98.5C 249.027,118.825 238.86,137.159 225,153.5C 206.891,174.112 187.058,192.779 165.5,209.5C 161.793,211.688 158.46,214.355 155.5,217.5C 146.775,225.214 137.441,232.214 127.5,238.5C 120.417,234.304 113.75,229.637 107.5,224.5C 106.525,222.807 105.192,221.307 103.5,220C 100.28,217.563 96.947,215.397 93.5,213.5C 61.1023,190.602 33.9357,162.602 12,129.5C 6.33189,119.639 2.16523,109.305 -0.5,98.5C -0.5,90.1667 -0.5,81.8333 -0.5,73.5C 0.82654,66.187 3.15987,59.187 6.5,52.5C 7.80645,52.1457 8.80645,50.8124 9.5,48.5C 9.37642,47.8933 9.04309,47.56 8.5,47.5C 17.6384,32.8812 30.6384,23.3812 47.5,19C 72.8586,12.6117 95.8586,17.2783 116.5,33C 120.203,36.3675 123.536,40.0342 126.5,44C 127.577,44.4696 128.577,44.3029 129.5,43.5 Z"/></g>
<g><path style="opacity:0.153" fill="#a4b864" d="M 194.5,17.5 C 196.95,17.298 199.283,17.6314 201.5,18.5C 201.44,19.0431 201.107,19.3764 200.5,19.5C 198.343,18.9495 196.343,18.2829 194.5,17.5 Z"/></g>
<g><path style="opacity:0.816" fill="#aea570" d="M 133.5,38.5 C 132.92,40.7488 131.587,42.4154 129.5,43.5C 130.08,41.2512 131.413,39.5846 133.5,38.5 Z"/></g>
<g><path style="opacity:0.98" fill="#828840" d="M 8.5,47.5 C 9.04309,47.56 9.37642,47.8933 9.5,48.5C 8.80645,50.8124 7.80645,52.1457 6.5,52.5C 6.89254,50.7162 7.5592,49.0495 8.5,47.5 Z"/></g>
<g><path style="opacity:0.039" fill="#959269" d="M 165.5,209.5 C 162.905,213.126 159.572,215.792 155.5,217.5C 158.46,214.355 161.793,211.688 165.5,209.5 Z"/></g>
<g><path style="opacity:0.243" fill="#908f7f" d="M 93.5,213.5 C 96.947,215.397 100.28,217.563 103.5,220C 105.192,221.307 106.525,222.807 107.5,224.5C 102.235,221.565 97.5683,217.899 93.5,213.5 Z"/></g>
</svg>
