<?xml version="1.0" encoding="UTF-8"?>
<svg xmlns="http://www.w3.org/2000/svg" version="1.1" width="512px" height="512px" style="shape-rendering:geometricPrecision; text-rendering:geometricPrecision; image-rendering:optimizeQuality; fill-rule:evenodd; clip-rule:evenodd" xmlns:xlink="http://www.w3.org/1999/xlink">
<g><path style="opacity:1" fill="#03558b" d="M 364.5,-0.5 C 375.167,-0.5 385.833,-0.5 396.5,-0.5C 424.238,3.53557 448.571,14.8689 469.5,33.5C 471.43,37.1002 474.097,40.1002 477.5,42.5C 495.691,61.8879 506.691,84.8879 510.5,111.5C 509.355,113.953 509.688,116.287 511.5,118.5C 511.5,127.833 511.5,137.167 511.5,146.5C 507.469,173.562 496.636,197.562 479,218.5C 443.833,253.667 408.667,288.833 373.5,324C 355.572,339.463 334.905,349.296 311.5,353.5C 311.565,353.062 311.399,352.728 311,352.5C 308.37,352.859 306.203,353.859 304.5,355.5C 256.177,360.239 216.011,344.572 184,308.5C 181.49,304.805 178.99,301.138 176.5,297.5C 187.179,287.833 196.845,277.833 205.5,267.5C 212.92,259.942 221.92,257.442 232.5,260C 236.112,261.139 239.446,262.806 242.5,265C 264.808,286.525 289.808,290.192 317.5,276C 319.833,274.333 322.167,272.667 324.5,271C 358.667,236.833 392.833,202.667 427,168.5C 445,143.167 445,117.833 427,92.5C 403.149,67.9977 376.316,64.1643 346.5,81C 327.681,98.9852 309.014,117.152 290.5,135.5C 262.413,123.225 233.246,119.225 203,123.5C 202.415,122.002 202.915,121.002 204.5,120.5C 232.3,94.2069 259.966,67.0402 287.5,39C 287.272,38.6012 286.938,38.4346 286.5,38.5C 307.911,16.4612 333.911,3.46123 364.5,-0.5 Z"/></g>
<g><path style="opacity:0.639" fill="#2bbb8f" d="M 469.5,33.5 C 472.903,35.8998 475.57,38.8998 477.5,42.5C 474.097,40.1002 471.43,37.1002 469.5,33.5 Z"/></g>
<g><path style="opacity:0.886" fill="#2ac062" d="M 286.5,38.5 C 286.938,38.4346 287.272,38.6012 287.5,39C 259.966,67.0402 232.3,94.2069 204.5,120.5C 231.5,92.8333 258.833,65.5 286.5,38.5 Z"/></g>
<g><path style="opacity:0.384" fill="#15ad5b" d="M 510.5,111.5 C 510.263,112.791 510.596,113.791 511.5,114.5C 511.5,115.833 511.5,117.167 511.5,118.5C 509.688,116.287 509.355,113.953 510.5,111.5 Z"/></g>
<g><path style="opacity:1" fill="#04558b" d="M 174.5,251.5 C 161.753,262.744 149.42,274.577 137.5,287C 137.728,287.399 138.062,287.565 138.5,287.5C 138.5,288.167 138.167,288.5 137.5,288.5C 133.765,290.725 130.432,293.558 127.5,297C 127.728,297.399 128.062,297.565 128.5,297.5C 113.869,312.632 99.0352,327.632 84,342.5C 66,367.833 66,393.167 84,418.5C 88.7645,423.772 93.9312,428.439 99.5,432.5C 100.911,434.539 102.911,435.539 105.5,435.5C 128.109,444.175 149.109,441.341 168.5,427C 185.681,409.653 203.014,392.486 220.5,375.5C 248.585,387.774 277.752,391.774 308,387.5C 308.667,388.167 308.667,388.833 308,389.5C 276.472,421.361 244.639,452.861 212.5,484C 192.862,498.932 170.862,508.099 146.5,511.5C 135.833,511.5 125.167,511.5 114.5,511.5C 90.6785,508.339 69.3452,499.339 50.5,484.5C 51.7383,484.19 51.7383,483.69 50.5,483C 47.9348,480.92 45.2682,479.087 42.5,477.5C 41.7611,477.631 41.0944,477.464 40.5,477C 28.9312,466.278 19.9312,453.778 13.5,439.5C 13.9382,439.565 14.2716,439.399 14.5,439C 12.383,434.853 10.383,431.353 8.5,428.5C 4.25224,418.175 1.25224,407.508 -0.5,396.5C -0.5,385.833 -0.5,375.167 -0.5,364.5C 3.40162,334.435 16.0683,308.769 37.5,287.5C 69.9161,256.585 101.916,225.085 133.5,193C 133.272,192.601 132.938,192.435 132.5,192.5C 169.621,157.886 212.954,147.053 262.5,160C 291.609,169.124 315.109,185.958 333,210.5C 334.187,212.044 334.52,213.711 334,215.5C 323.833,225.667 313.667,235.833 303.5,246C 292.167,253.333 280.833,253.333 269.5,246C 250.091,226.584 227.425,221.584 201.5,231C 191.033,235.9 182.033,242.734 174.5,251.5 Z"/></g>
<g><path style="opacity:0.875" fill="#22bc4e" d="M 132.5,192.5 C 132.938,192.435 133.272,192.601 133.5,193C 101.916,225.085 69.9161,256.585 37.5,287.5C 68.8333,255.5 100.5,223.833 132.5,192.5 Z"/></g>
<g><path style="opacity:0.137" fill="#38c9c2" d="M 174.5,251.5 C 162.833,263.833 150.833,275.833 138.5,287.5C 138.062,287.565 137.728,287.399 137.5,287C 149.42,274.577 161.753,262.744 174.5,251.5 Z"/></g>
<g><path style="opacity:0.831" fill="#2c9e70" d="M 205.5,267.5 C 196.845,277.833 187.179,287.833 176.5,297.5C 185.446,286.886 195.112,276.886 205.5,267.5 Z"/></g>
<g><path style="opacity:0.137" fill="#38c9c2" d="M 137.5,288.5 C 134.833,291.833 131.833,294.833 128.5,297.5C 128.062,297.565 127.728,297.399 127.5,297C 130.432,293.558 133.765,290.725 137.5,288.5 Z"/></g>
<g><path style="opacity:0.373" fill="#2bbf79" d="M 311.5,353.5 C 309.285,354.268 306.952,354.935 304.5,355.5C 306.203,353.859 308.37,352.859 311,352.5C 311.399,352.728 311.565,353.062 311.5,353.5 Z"/></g>
<g><path style="opacity:0.949" fill="#329d74" d="M 13.5,439.5 C 11.0431,436.249 9.37641,432.582 8.5,428.5C 10.383,431.353 12.383,434.853 14.5,439C 14.2716,439.399 13.9382,439.565 13.5,439.5 Z"/></g>
<g><path style="opacity:0.616" fill="#1ccc73" d="M 99.5,432.5 C 101.819,432.992 103.819,433.992 105.5,435.5C 102.911,435.539 100.911,434.539 99.5,432.5 Z"/></g>
<g><path style="opacity:0.843" fill="#23a384" d="M 42.5,477.5 C 45.2682,479.087 47.9348,480.92 50.5,483C 51.7383,483.69 51.7383,484.19 50.5,484.5C 47.2157,482.883 44.5491,480.55 42.5,477.5 Z"/></g>
</svg>
