<?xml version="1.0" encoding="UTF-8"?>
<!DOCTYPE svg PUBLIC "-//W3C//DTD SVG 1.1//EN" "http://www.w3.org/Graphics/SVG/1.1/DTD/svg11.dtd">
<svg xmlns="http://www.w3.org/2000/svg" version="1.1" width="512px" height="512px" style="shape-rendering:geometricPrecision; text-rendering:geometricPrecision; image-rendering:optimizeQuality; fill-rule:evenodd; clip-rule:evenodd" xmlns:xlink="http://www.w3.org/1999/xlink">
<g><path style="opacity:1" fill="#4397d6" d="M 215.5,127.5 C 216.167,130.167 217.833,131.833 220.5,132.5C 260.761,165.758 300.428,199.758 339.5,234.5C 342.5,238.167 345.833,241.5 349.5,244.5C 353.997,253.532 353.163,262.199 347,270.5C 295.074,314.548 243.24,358.715 191.5,403C 175.921,409.374 165.088,404.874 159,389.5C 157.791,383.114 158.791,377.114 162,371.5C 171.578,361.988 181.745,353.321 192.5,345.5C 194.544,344.969 196.211,343.802 197.5,342C 197.272,341.601 196.938,341.435 196.5,341.5C 229.762,312.851 263.095,284.184 296.5,255.5C 253.814,218.477 211.147,181.477 168.5,144.5C 166.152,140.829 163.486,137.496 160.5,134.5C 157.398,113.538 166.398,104.038 187.5,106C 189.246,106.471 190.913,107.138 192.5,108C 200.358,114.365 208.025,120.865 215.5,127.5 Z"/></g>
<g><path style="opacity:0.949" fill="#c87063" d="M 215.5,127.5 C 217.5,128.833 219.167,130.5 220.5,132.5C 217.833,131.833 216.167,130.167 215.5,127.5 Z"/></g>
<g><path style="opacity:0.357" fill="#90ab65" d="M 160.5,134.5 C 163.486,137.496 166.152,140.829 168.5,144.5C 164.724,142.057 162.057,138.724 160.5,134.5 Z"/></g>
<g><path style="opacity:0.992" fill="#a1a088" d="M 339.5,234.5 C 343.833,236.833 347.167,240.167 349.5,244.5C 345.833,241.5 342.5,238.167 339.5,234.5 Z"/></g>
<g><path style="opacity:0.922" fill="#879240" d="M 196.5,341.5 C 196.938,341.435 197.272,341.601 197.5,342C 196.211,343.802 194.544,344.969 192.5,345.5C 193.5,343.833 194.833,342.5 196.5,341.5 Z"/></g>
</svg>
