<?xml version="1.0"?>
<svg xmlns="http://www.w3.org/2000/svg" xmlns:xlink="http://www.w3.org/1999/xlink" xmlns:svgjs="http://svgjs.com/svgjs" version="1.1" width="512" height="512" x="0" y="0" viewBox="0 0 64 64" style="enable-background:new 0 0 512 512" xml:space="preserve" class=""><g><path xmlns="http://www.w3.org/2000/svg" d="m41.995 55.99h-1v-1c0-.553-.447-1-1-1s-1 .447-1 1v1h-1c-.553 0-1 .447-1 1s.447 1 1 1h1v.998c0 .553.447 1 1 1s1-.447 1-1v-.998h1c.553 0 1-.447 1-1s-.447-1-1-1z" fill="#ffffff" data-original="#000000" style="" class=""/><path xmlns="http://www.w3.org/2000/svg" d="m50.037 57.99c.552 0 1-.447 1-1s-.448-1-1-1h-.011c-.552 0-.994.447-.994 1s.452 1 1.005 1z" fill="#ffffff" data-original="#000000" style="" class=""/><path xmlns="http://www.w3.org/2000/svg" d="m52.037 55.99c.552 0 1-.447 1-1s-.448-1-1-1h-.011c-.552 0-.994.447-.994 1s.452 1 1.005 1z" fill="#ffffff" data-original="#000000" style="" class=""/><path xmlns="http://www.w3.org/2000/svg" d="m52.039 57.99h-.011c-.552 0-.994.447-.994 1s.452 1 1.005 1c.552 0 1-.447 1-1s-.448-1-1-1z" fill="#ffffff" data-original="#000000" style="" class=""/><path xmlns="http://www.w3.org/2000/svg" d="m54.039 57.99c.552 0 1-.447 1-1s-.448-1-1-1h-.011c-.552 0-.994.447-.994 1s.452 1 1.005 1z" fill="#ffffff" data-original="#000000" style="" class=""/><path xmlns="http://www.w3.org/2000/svg" d="m40.005 50c-3.859 0-7 3.141-7 7s3.141 7 7 7c2.484 0 4.751-1.323 5.998-3.402 1.248 2.079 3.515 3.402 6 3.402 3.859 0 7-3.141 7-7 0-3.855-3.137-6.995-6.994-7h-5.012c0-.003.002-.005.002-.008 0-1.654-1.346-3-3-3h-16.002c-.007 0-.013.004-.02.004-.266-.011-.48-.228-.48-.496 0-.275.225-.5.5-.5h.002c12.681 0 22.998-10.317 22.998-23 0-7.064-3.204-13.392-8.231-17.614-.096-.119-.209-.22-.349-.286-3.948-3.186-8.965-5.1-14.422-5.1-12.682 0-22.998 10.317-22.998 23-.001 6.144 2.391 11.919 6.735 16.264.9.9 1.876 1.696 2.891 2.425.043.045.098.074.148.11 3.199 2.26 6.895 3.666 10.815 4.071-.053.203-.09.411-.09.63 0 1.379 1.121 2.5 2.5 2.5.014 0 .025-.007.039-.008h15.963c.548 0 .992.442.998.989 0 .007-.004.012-.004.019zm16.998 7c0 2.757-2.243 5-5 5-2.115 0-4.009-1.343-4.713-3.342-.142-.4-.52-.668-.943-.668h-.688c-.424 0-.802.268-.943.668-.704 1.999-2.598 3.342-4.711 3.342-2.757 0-5-2.243-5-5s2.243-5 5-5h12.003c2.754.003 4.995 2.246 4.995 5zm-8.006-34c0 .675-.039 1.341-.102 2h-12.9c-.552 0-1-.448-1-1s.448-1 1-1c.553 0 1-.447 1-1s-.447-1-1-1h-11c-.552 0-1-.448-1-1s.448-1 1-1h6c.553 0 1-.447 1-1s-.447-1-1-1c-.552 0-1-.448-1-1s.448-1 1-1h6c.553 0 1-.447 1-1s-.447-1-1-1c-.552 0-1-.448-1-1s.448-1 1-1c.553 0 1-.447 1-1s-.447-1-1-1h-8c-.552 0-1-.448-1-1s.448-1 1-1h12.569c4.54 3.855 7.433 9.593 7.433 16zm-21.002-21c3.937 0 7.609 1.108 10.762 3h-9.762c-1.654 0-3 1.346-3 3s1.346 3 3 3h5.185c-.112.314-.185.647-.185 1s.072.686.185 1h-3.185c-1.654 0-3 1.346-3 3 0 .353.072.686.185 1h-3.185c-1.654 0-3 1.346-3 3s1.346 3 3 3h8.185c-.112.314-.185.647-.185 1 0 1.654 1.346 3 3 3h12.609c-1.874 9.671-10.396 17-20.605 17h-.004c-3.135 0-6.155-.705-8.911-2h3.911c1.654 0 3-1.346 3-3 0-.353-.072-.686-.185-1h2.185c1.654 0 3-1.346 3-3s-1.346-3-3-3h-5.185c.112-.314.185-.647.185-1 0-1.654-1.346-3-3-3h-4.185c.112-.314.185-.647.185-1 0-1.654-1.346-3-3-3h-5.949c-.016-.334-.049-.664-.049-1 0-11.579 9.42-21 20.998-21zm-20.762 24h5.762c.552 0 1 .448 1 1s-.448 1-1 1c-.553 0-1 .447-1 1s.447 1 1 1h7c.552 0 1 .448 1 1s-.448 1-1 1c-.553 0-1 .447-1 1s.447 1 1 1h8c.552 0 1 .448 1 1s-.448 1-1 1h-5c-.553 0-1 .447-1 1s.447 1 1 1c.552 0 1 .448 1 1s-.448 1-1 1h-7.295c-.895-.649-1.757-1.354-2.554-2.15-3.248-3.249-5.277-7.381-5.913-11.85z" fill="#ffffff" data-original="#000000" style="" class=""/></g></svg>
