<?xml version="1.0" encoding="UTF-8"?>
<!DOCTYPE svg PUBLIC "-//W3C//DTD SVG 1.1//EN" "http://www.w3.org/Graphics/SVG/1.1/DTD/svg11.dtd">
<svg xmlns="http://www.w3.org/2000/svg" version="1.1" width="512px" height="512px" style="shape-rendering:geometricPrecision; text-rendering:geometricPrecision; image-rendering:optimizeQuality; fill-rule:evenodd; clip-rule:evenodd" xmlns:xlink="http://www.w3.org/1999/xlink">
<g><path style="opacity:1" fill="#3997d9" d="M 236.5,-0.5 C 249.167,-0.5 261.833,-0.5 274.5,-0.5C 311.892,2.57409 337.226,21.5741 350.5,56.5C 349.903,56.7352 349.57,57.2352 349.5,58C 349.698,60.1845 350.698,61.6845 352.5,62.5C 358.902,91.5831 360.402,120.916 357,150.5C 353.724,170.003 346.724,188.003 336,204.5C 334.383,206.763 332.55,208.763 330.5,210.5C 328.413,211.585 327.08,213.251 326.5,215.5C 303.882,242.659 274.882,253.826 239.5,249C 212.064,242.704 190.564,227.871 175,204.5C 159.647,179.932 151.814,153.099 151.5,124C 151.531,102.857 154.031,82.0238 159,61.5C 170.957,23.5924 196.79,2.92575 236.5,-0.5 Z"/></g>
<g><path style="opacity:0.106" fill="#ad9f46" d="M 350.5,56.5 C 350.971,58.5786 351.637,60.5786 352.5,62.5C 350.698,61.6845 349.698,60.1845 349.5,58C 349.57,57.2352 349.903,56.7352 350.5,56.5 Z"/></g>
<g><path style="opacity:0.133" fill="#967343" d="M 330.5,210.5 C 329.92,212.749 328.587,214.415 326.5,215.5C 327.08,213.251 328.413,211.585 330.5,210.5 Z"/></g>
<g><path style="opacity:1" fill="#3797d9" d="M 448.5,394.5 C 447.957,394.56 447.624,394.893 447.5,395.5C 448.067,397.982 448.734,400.316 449.5,402.5C 450.403,420.159 450.57,437.826 450,455.5C 445.997,460.669 441.497,465.336 436.5,469.5C 433.708,469.622 431.708,470.956 430.5,473.5C 418.977,481.928 406.31,488.262 392.5,492.5C 392.565,492.062 392.399,491.728 392,491.5C 389.942,492.229 388.109,493.229 386.5,494.5C 373.312,499.381 359.646,502.881 345.5,505C 327.108,507.95 308.775,510.117 290.5,511.5C 267.167,511.5 243.833,511.5 220.5,511.5C 204.261,510.187 187.928,508.354 171.5,506C 160.182,504.307 149.182,501.807 138.5,498.5C 136.485,497.076 134.152,496.41 131.5,496.5C 120.839,494.394 110.839,490.727 101.5,485.5C 99.8225,483.659 97.3225,481.992 94,480.5C 93.6012,480.728 93.4346,481.062 93.5,481.5C 87.9946,479.251 82.9946,476.251 78.5,472.5C 78.5858,471.504 78.2524,470.671 77.5,470C 73.2733,466.263 68.94,462.763 64.5,459.5C 63.1154,458.426 61.9487,457.093 61,455.5C 59.5573,420.232 61.8906,385.232 68,350.5C 71.3514,334.802 77.6847,320.468 87,307.5C 91.7587,302.234 96.9254,297.567 102.5,293.5C 106.852,291.327 110.852,288.66 114.5,285.5C 125.665,278.712 137.665,273.545 150.5,270C 166.903,265.063 183.569,261.73 200.5,260C 219.003,276.384 240.67,283.051 265.5,280C 282.892,278.466 297.892,271.799 310.5,260C 342.269,263.109 372.269,272.109 400.5,287C 421.299,300.138 434.799,318.638 441,342.5C 445.507,359.549 448.007,376.882 448.5,394.5 Z"/></g>
<g><path style="opacity:0.369" fill="#94a681" d="M 114.5,285.5 C 110.852,288.66 106.852,291.327 102.5,293.5C 105.803,289.844 109.803,287.178 114.5,285.5 Z"/></g>
<g><path style="opacity:0.988" fill="#c1a267" d="M 448.5,394.5 C 449.388,397.054 449.721,399.721 449.5,402.5C 448.734,400.316 448.067,397.982 447.5,395.5C 447.624,394.893 447.957,394.56 448.5,394.5 Z"/></g>
<g><path style="opacity:0.898" fill="#988c75" d="M 64.5,459.5 C 68.94,462.763 73.2733,466.263 77.5,470C 78.2524,470.671 78.5858,471.504 78.5,472.5C 73.2056,468.873 68.539,464.54 64.5,459.5 Z"/></g>
<g><path style="opacity:0.263" fill="#80dea1" d="M 436.5,469.5 C 434.777,471.218 432.777,472.551 430.5,473.5C 431.708,470.956 433.708,469.622 436.5,469.5 Z"/></g>
<g><path style="opacity:0.992" fill="#a79b5e" d="M 101.5,485.5 C 98.5152,484.674 95.8485,483.341 93.5,481.5C 93.4346,481.062 93.6012,480.728 94,480.5C 97.3225,481.992 99.8225,483.659 101.5,485.5 Z"/></g>
<g><path style="opacity:0.09" fill="#6ead5d" d="M 392.5,492.5 C 390.786,493.738 388.786,494.405 386.5,494.5C 388.109,493.229 389.942,492.229 392,491.5C 392.399,491.728 392.565,492.062 392.5,492.5 Z"/></g>
<g><path style="opacity:0.369" fill="#8fb16b" d="M 131.5,496.5 C 134.152,496.41 136.485,497.076 138.5,498.5C 135.848,498.59 133.515,497.924 131.5,496.5 Z"/></g>
</svg>
