<?xml version="1.0" encoding="UTF-8"?>
<!DOCTYPE svg PUBLIC "-//W3C//DTD SVG 1.1//EN" "http://www.w3.org/Graphics/SVG/1.1/DTD/svg11.dtd">
<svg xmlns="http://www.w3.org/2000/svg" version="1.1" width="512px" height="512px" style="shape-rendering:geometricPrecision; text-rendering:geometricPrecision; image-rendering:optimizeQuality; fill-rule:evenodd; clip-rule:evenodd" xmlns:xlink="http://www.w3.org/1999/xlink">
<g><path style="opacity:1" fill="#3897d9" d="M 199.5,-0.5 C 236.833,-0.5 274.167,-0.5 311.5,-0.5C 319.148,2.31649 324.315,7.64982 327,15.5C 330.186,35.8036 333.186,56.137 336,76.5C 346.651,82.2324 356.817,88.5657 366.5,95.5C 366.354,96.6995 367.354,97.3661 369.5,97.5C 371.568,97.0328 373.568,96.3661 375.5,95.5C 376.298,95.0431 376.631,94.3764 376.5,93.5C 392.849,87.1044 409.183,80.6044 425.5,74C 430.5,73.3333 435.5,73.3333 440.5,74C 443.239,75.0259 445.572,76.5259 447.5,78.5C 449.708,82.2771 452.375,85.6104 455.5,88.5C 472.161,116.481 488.327,144.814 504,173.5C 507.125,184.497 504.292,193.664 495.5,201C 480.333,212.833 465.167,224.667 450,236.5C 450.787,248.486 450.621,260.486 449.5,272.5C 449.876,274.383 450.876,275.883 452.5,277C 469.243,289.072 485.409,301.906 501,315.5C 505.443,322.381 506.443,329.714 504,337.5C 487.333,366.833 470.667,396.167 454,425.5C 447.277,435.968 437.777,439.801 425.5,437C 406.873,429.402 388.207,421.902 369.5,414.5C 358.981,421.595 347.981,427.929 336.5,433.5C 333.289,454.143 330.122,474.81 327,495.5C 324.315,503.35 319.148,508.684 311.5,511.5C 274.167,511.5 236.833,511.5 199.5,511.5C 191.852,508.684 186.685,503.35 184,495.5C 181.014,474.593 177.847,453.76 174.5,433C 162.885,427.861 151.885,421.694 141.5,414.5C 122.54,422.098 103.54,429.598 84.5,437C 74.2115,439.348 65.7115,436.515 59,428.5C 51.9098,416.26 45.0765,403.927 38.5,391.5C 38.0537,388.811 37.0537,387.144 35.5,386.5C 25.5218,370.557 16.0218,354.224 7,337.5C 3.93168,326.508 6.76502,317.341 15.5,310C 30.6667,298.167 45.8333,286.333 61,274.5C 60.2276,262.676 60.3943,250.843 61.5,239C 61.3569,236.849 60.3569,235.182 58.5,234C 41.8781,221.768 25.7114,208.935 10,195.5C 3.85261,185.322 4.18594,175.322 11,165.5C 27.2743,137.272 43.7743,109.272 60.5,81.5C 62.5441,80.9688 64.2107,79.8022 65.5,78C 65.2716,77.6012 64.9382,77.4346 64.5,77.5C 66.4927,75.8368 68.8261,74.6701 71.5,74C 76.1667,73.3333 80.8333,73.3333 85.5,74C 104.254,81.6958 123.087,89.1958 142,96.5C 145.396,94.2608 148.896,92.2608 152.5,90.5C 155.198,90.1551 157.198,88.8218 158.5,86.5C 163.569,82.8788 169.069,79.8788 175,77.5C 177.907,56.8194 180.907,36.1527 184,15.5C 186.685,7.64982 191.852,2.31649 199.5,-0.5 Z M 233.5,173.5 C 236.067,173.279 238.401,172.612 240.5,171.5C 283.786,167.386 314.953,184.72 334,223.5C 346.918,261.329 338.751,293.829 309.5,321C 273.5,347 237.5,347 201.5,321C 168.387,289.095 162.22,252.595 183,211.5C 195.101,192.568 211.935,179.901 233.5,173.5 Z"/></g>
<g><path style="opacity:0.953" fill="#908741" d="M 64.5,77.5 C 64.9382,77.4346 65.2716,77.6012 65.5,78C 64.2107,79.8022 62.5441,80.9688 60.5,81.5C 61.5,79.8333 62.8333,78.5 64.5,77.5 Z"/></g>
<g><path style="opacity:0.769" fill="#79bd86" d="M 447.5,78.5 C 451.117,81.0639 453.784,84.3972 455.5,88.5C 452.375,85.6104 449.708,82.2771 447.5,78.5 Z"/></g>
<g><path style="opacity:0.875" fill="#90c275" d="M 158.5,86.5 C 157.198,88.8218 155.198,90.1551 152.5,90.5C 154.147,88.6736 156.147,87.3403 158.5,86.5 Z"/></g>
<g><path style="opacity:0.988" fill="#b79385" d="M 376.5,93.5 C 376.631,94.3764 376.298,95.0431 375.5,95.5C 373.568,96.3661 371.568,97.0328 369.5,97.5C 367.354,97.3661 366.354,96.6995 366.5,95.5C 370.022,96.3394 373.356,95.6727 376.5,93.5 Z"/></g>
<g><path style="opacity:0.169" fill="#6ecb77" d="M 240.5,171.5 C 238.401,172.612 236.067,173.279 233.5,173.5C 235.438,171.837 237.772,171.171 240.5,171.5 Z"/></g>
<g><path style="opacity:0.024" fill="#b5b66c" d="M 38.5,391.5 C 36.7497,390.341 35.7497,388.674 35.5,386.5C 37.0537,387.144 38.0537,388.811 38.5,391.5 Z"/></g>
</svg>
