<?xml version="1.0" encoding="UTF-8"?>
<!DOCTYPE svg PUBLIC "-//W3C//DTD SVG 1.1//EN" "http://www.w3.org/Graphics/SVG/1.1/DTD/svg11.dtd">
<svg xmlns="http://www.w3.org/2000/svg" version="1.1" width="512px" height="512px" style="shape-rendering:geometricPrecision; text-rendering:geometricPrecision; image-rendering:optimizeQuality; fill-rule:evenodd; clip-rule:evenodd" xmlns:xlink="http://www.w3.org/1999/xlink">
<g><path style="opacity:1" fill="#77ffb7" d="M 511.5,85.5 C 511.5,90.5 511.5,95.5 511.5,100.5C 509.877,104.4 507.711,108.067 505,111.5C 396.5,220 288,328.5 179.5,437C 171.872,443.121 163.206,445.121 153.5,443C 151.051,442.275 148.717,441.275 146.5,440C 98.6667,392.167 50.8333,344.333 3,296.5C 1.78739,294.075 0.620727,291.741 -0.5,289.5C -0.5,284.5 -0.5,279.5 -0.5,274.5C 5.90326,259.463 17.2366,253.63 33.5,257C 36.6612,258.413 39.6612,260.08 42.5,262C 55.3686,274.702 68.0353,287.535 80.5,300.5C 106.45,328.117 133.116,355.117 160.5,381.5C 212.451,331.216 263.784,280.216 314.5,228.5C 366.216,177.784 417.216,126.451 467.5,74.5C 474.871,67.8805 483.538,65.7139 493.5,68C 502.018,71.3531 508.018,77.1865 511.5,85.5 Z"/></g>
<g><path style="opacity:0.686" fill="#ccffc8" d="M 467.5,74.5 C 417.216,126.451 366.216,177.784 314.5,228.5C 314.167,228.5 313.833,228.5 313.5,228.5C 364.5,176.833 415.833,125.5 467.5,74.5 Z"/></g>
<g><path style="opacity:0.682" fill="#4afe86" d="M 313.5,228.5 C 313.833,228.5 314.167,228.5 314.5,228.5C 263.784,280.216 212.451,331.216 160.5,381.5C 160.5,381.167 160.5,380.833 160.5,380.5C 211.5,329.833 262.5,279.167 313.5,228.5 Z"/></g>
<g><path style="opacity:0.816" fill="#4ffeea" d="M 80.5,300.5 C 107.5,326.833 134.167,353.5 160.5,380.5C 160.5,380.833 160.5,381.167 160.5,381.5C 133.116,355.117 106.45,328.117 80.5,300.5 Z"/></g>
</svg>
