<?xml version="1.0" encoding="UTF-8"?>
<!DOCTYPE svg PUBLIC "-//W3C//DTD SVG 1.1//EN" "http://www.w3.org/Graphics/SVG/1.1/DTD/svg11.dtd">
<svg xmlns="http://www.w3.org/2000/svg" version="1.1" width="512px" height="512px" style="shape-rendering:geometricPrecision; text-rendering:geometricPrecision; image-rendering:optimizeQuality; fill-rule:evenodd; clip-rule:evenodd" xmlns:xlink="http://www.w3.org/1999/xlink">
<g><path style="opacity:0.997" fill="#85d9f0" d="M 234.5,-0.5 C 248.5,-0.5 262.5,-0.5 276.5,-0.5C 306.386,2.23366 335.053,9.90033 362.5,22.5C 357.65,25.7549 352.317,28.2549 346.5,30C 335.6,32.137 324.6,33.4704 313.5,34C 307.128,35.5096 300.795,37.1763 294.5,39C 291.705,40.7932 289.205,42.9598 287,45.5C 283.922,51.9913 280.588,58.3246 277,64.5C 276.058,71.9866 276.725,79.32 279,86.5C 281.365,89.8691 284.532,92.0357 288.5,93C 295.811,93.8313 303.144,94.3313 310.5,94.5C 323.047,93.679 335.547,92.679 348,91.5C 355.762,91.0201 363.262,92.0201 370.5,94.5C 364.385,98.9504 359.719,104.617 356.5,111.5C 352.763,109.395 348.763,107.895 344.5,107C 322.861,104.496 302.194,107.829 282.5,117C 274.199,125.599 268.199,135.599 264.5,147C 266.06,161.824 267.56,176.658 269,191.5C 271.885,199.447 276.385,206.281 282.5,212C 285.154,212.941 287.821,213.774 290.5,214.5C 288.397,215.65 286.397,216.983 284.5,218.5C 285.167,218.833 285.833,219.167 286.5,219.5C 289.183,218.49 291.849,217.49 294.5,216.5C 296.199,216.34 297.866,216.506 299.5,217C 305.956,220.711 312.623,224.044 319.5,227C 326.14,228.486 332.473,230.819 338.5,234C 349.836,234.074 361.169,234.074 372.5,234C 376.723,235.944 381.056,237.611 385.5,239C 390.351,243.868 393.518,249.702 395,256.5C 396.512,269.272 398.512,281.939 401,294.5C 403.513,298.858 406.513,302.858 410,306.5C 412.382,316.648 415.382,326.648 419,336.5C 427.746,354.074 434.08,372.408 438,391.5C 442.667,397.5 447.333,403.5 452,409.5C 453.615,410.386 455.115,411.386 456.5,412.5C 456.649,413.552 456.483,414.552 456,415.5C 409.27,471.784 349.437,503.784 276.5,511.5C 262.167,511.5 247.833,511.5 233.5,511.5C 138.107,499.902 68.2736,451.569 24,366.5C 10.6516,337.431 2.48498,307.097 -0.5,275.5C -0.5,261.833 -0.5,248.167 -0.5,234.5C 1.94246,211.384 6.94246,188.717 14.5,166.5C 16.8563,175.63 19.3563,184.964 22,194.5C 27.9636,207.132 36.7969,217.299 48.5,225C 57.484,230.478 66.8173,235.311 76.5,239.5C 71.7438,245.427 67.5772,251.761 64,258.5C 62.5488,270.802 62.2154,283.135 63,295.5C 69.4033,305.24 76.5699,314.406 84.5,323C 87.9974,325.583 91.6641,327.916 95.5,330C 102.448,332.065 109.114,334.732 115.5,338C 123.01,345.195 126.51,354.028 126,364.5C 126.333,386.167 126.667,407.833 127,429.5C 131.612,443.45 138.779,455.95 148.5,467C 150.67,468.586 153.004,469.92 155.5,471C 164.412,471.816 173.245,471.65 182,470.5C 183.109,465.944 183.609,461.278 183.5,456.5C 183.055,449.156 182.888,441.823 183,434.5C 200.501,424.155 212.835,409.488 220,390.5C 220.088,384.39 220.755,378.39 222,372.5C 230.254,361.575 239.254,351.242 249,341.5C 254.593,334.908 258.926,327.575 262,319.5C 264.505,309.238 263.838,299.238 260,289.5C 258.127,287.291 255.96,285.458 253.5,284C 245.833,283.667 238.167,283.333 230.5,283C 223.56,274.567 217.227,265.733 211.5,256.5C 212.567,254.121 211.567,253.121 208.5,253.5C 206.324,251.485 203.824,249.818 201,248.5C 200.934,245.724 199.768,243.558 197.5,242C 191.986,240.284 186.32,239.45 180.5,239.5C 183.876,224.11 178.542,212.943 164.5,206C 150.26,201.358 138.926,205.191 130.5,217.5C 129.127,217.657 127.793,217.49 126.5,217C 121.701,210.264 115.367,208.097 107.5,210.5C 104.152,214.863 99.8187,217.53 94.5,218.5C 93.7354,210.442 91.5688,202.776 88,195.5C 83.3333,190.833 78.6667,186.167 74,181.5C 73.1697,175.472 73.3364,169.472 74.5,163.5C 81.786,159.426 89.4526,158.426 97.5,160.5C 122.791,159.761 146.458,153.261 168.5,141C 171.965,138.537 175.131,135.704 178,132.5C 183.958,122.527 189.958,112.527 196,102.5C 201.668,95.754 208.501,90.5873 216.5,87C 222.698,80.4679 229.198,74.3013 236,68.5C 242.176,58.7173 244.176,48.0506 242,36.5C 241.626,35.5838 241.126,34.7504 240.5,34C 237.911,32.8035 235.244,31.8035 232.5,31C 224.197,29.9821 215.864,29.3155 207.5,29C 193.932,23.703 180.265,19.203 166.5,15.5C 188.052,7.11716 210.719,1.78383 234.5,-0.5 Z"/></g>
<g><path style="opacity:0.999" fill="#04aa6f" d="M 166.5,15.5 C 180.265,19.203 193.932,23.703 207.5,29C 215.864,29.3155 224.197,29.9821 232.5,31C 235.244,31.8035 237.911,32.8035 240.5,34C 241.126,34.7504 241.626,35.5838 242,36.5C 244.176,48.0506 242.176,58.7173 236,68.5C 229.198,74.3013 222.698,80.4679 216.5,87C 208.501,90.5873 201.668,95.754 196,102.5C 189.958,112.527 183.958,122.527 178,132.5C 175.131,135.704 171.965,138.537 168.5,141C 146.458,153.261 122.791,159.761 97.5,160.5C 89.4526,158.426 81.786,159.426 74.5,163.5C 73.3364,169.472 73.1697,175.472 74,181.5C 78.6667,186.167 83.3333,190.833 88,195.5C 91.5688,202.776 93.7354,210.442 94.5,218.5C 99.8187,217.53 104.152,214.863 107.5,210.5C 115.367,208.097 121.701,210.264 126.5,217C 127.793,217.49 129.127,217.657 130.5,217.5C 126.677,226.705 126.511,236.038 130,245.5C 135.983,258.49 144.15,269.824 154.5,279.5C 153.457,282.029 154.457,282.862 157.5,282C 164.959,278.437 172.293,274.603 179.5,270.5C 178.833,270.167 178.167,269.833 177.5,269.5C 170.15,272.842 162.817,276.176 155.5,279.5C 166.239,267.742 174.572,254.409 180.5,239.5C 186.32,239.45 191.986,240.284 197.5,242C 199.768,243.558 200.934,245.724 201,248.5C 203.824,249.818 206.324,251.485 208.5,253.5C 201.071,257.311 193.737,261.311 186.5,265.5C 187.723,266.614 189.056,266.781 190.5,266C 197.295,262.267 204.295,259.101 211.5,256.5C 217.227,265.733 223.56,274.567 230.5,283C 238.167,283.333 245.833,283.667 253.5,284C 255.96,285.458 258.127,287.291 260,289.5C 263.838,299.238 264.505,309.238 262,319.5C 258.926,327.575 254.593,334.908 249,341.5C 239.254,351.242 230.254,361.575 222,372.5C 220.755,378.39 220.088,384.39 220,390.5C 212.835,409.488 200.501,424.155 183,434.5C 182.888,441.823 183.055,449.156 183.5,456.5C 183.609,461.278 183.109,465.944 182,470.5C 173.245,471.65 164.412,471.816 155.5,471C 153.004,469.92 150.67,468.586 148.5,467C 138.779,455.95 131.612,443.45 127,429.5C 126.667,407.833 126.333,386.167 126,364.5C 126.51,354.028 123.01,345.195 115.5,338C 109.114,334.732 102.448,332.065 95.5,330C 91.6641,327.916 87.9974,325.583 84.5,323C 76.5699,314.406 69.4033,305.24 63,295.5C 62.2154,283.135 62.5488,270.802 64,258.5C 67.5772,251.761 71.7438,245.427 76.5,239.5C 66.8173,235.311 57.484,230.478 48.5,225C 36.7969,217.299 27.9636,207.132 22,194.5C 19.3563,184.964 16.8563,175.63 14.5,166.5C 38.9754,103.177 81.642,56.0099 142.5,25C 150.421,21.5286 158.421,18.3619 166.5,15.5 Z"/></g>
<g><path style="opacity:0.997" fill="#05aa70" d="M 362.5,22.5 C 379.051,30.1106 394.718,39.2773 409.5,50C 419.748,58.2786 429.748,66.7786 439.5,75.5C 439.5,76.1667 439.833,76.5 440.5,76.5C 440.5,77.1667 440.833,77.5 441.5,77.5C 444.559,81.228 447.226,85.228 449.5,89.5C 436.368,98.6594 421.701,102.326 405.5,100.5C 395.149,91.0091 383.482,89.0091 370.5,94.5C 363.262,92.0201 355.762,91.0201 348,91.5C 335.547,92.679 323.047,93.679 310.5,94.5C 303.144,94.3313 295.811,93.8313 288.5,93C 284.532,92.0357 281.365,89.8691 279,86.5C 276.725,79.32 276.058,71.9866 277,64.5C 280.588,58.3246 283.922,51.9913 287,45.5C 289.205,42.9598 291.705,40.7932 294.5,39C 300.795,37.1763 307.128,35.5096 313.5,34C 324.6,33.4704 335.6,32.137 346.5,30C 352.317,28.2549 357.65,25.7549 362.5,22.5 Z"/></g>
<g><path style="opacity:0.004" fill="#163c16" d="M 439.5,75.5 C 440.209,74.596 441.209,74.2627 442.5,74.5C 442.737,75.791 442.404,76.791 441.5,77.5C 440.833,77.5 440.5,77.1667 440.5,76.5C 439.833,76.5 439.5,76.1667 439.5,75.5 Z"/></g>
<g><path style="opacity:0.993" fill="#85d9ef" d="M 449.5,89.5 C 451.371,89.8588 452.871,90.8588 454,92.5C 460.336,100.513 466.169,108.846 471.5,117.5C 471.119,118.931 470.119,119.764 468.5,120C 454.402,122.922 440.402,126.255 426.5,130C 420.844,130.975 415.177,131.808 409.5,132.5C 414.484,121.002 413.151,110.336 405.5,100.5C 421.701,102.326 436.368,98.6594 449.5,89.5 Z"/></g>
<g><path style="opacity:1" fill="#fc0904" d="M 405.5,100.5 C 413.151,110.336 414.484,121.002 409.5,132.5C 403.116,146.205 394.783,158.538 384.5,169.5C 369.821,155.802 360.154,139.135 355.5,119.5C 356.269,116.885 356.603,114.219 356.5,111.5C 359.719,104.617 364.385,98.9504 370.5,94.5C 383.482,89.0091 395.149,91.0091 405.5,100.5 Z"/></g>
<g><path style="opacity:1" fill="#fefcfc" d="M 379.5,105.5 C 392.441,104.608 398.607,110.608 398,123.5C 393.163,133.777 385.663,136.277 375.5,131C 366.711,120.903 368.044,112.403 379.5,105.5 Z"/></g>
<g><path style="opacity:0.997" fill="#04a96f" d="M 356.5,111.5 C 356.603,114.219 356.269,116.885 355.5,119.5C 360.154,139.135 369.821,155.802 384.5,169.5C 394.783,158.538 403.116,146.205 409.5,132.5C 415.177,131.808 420.844,130.975 426.5,130C 440.402,126.255 454.402,122.922 468.5,120C 470.119,119.764 471.119,118.931 471.5,117.5C 493.371,152.081 506.704,190.415 511.5,232.5C 511.5,247.167 511.5,261.833 511.5,276.5C 506.853,323.605 491.02,366.605 464,405.5C 461.63,408.039 459.13,410.372 456.5,412.5C 455.115,411.386 453.615,410.386 452,409.5C 447.333,403.5 442.667,397.5 438,391.5C 434.08,372.408 427.746,354.074 419,336.5C 415.382,326.648 412.382,316.648 410,306.5C 406.513,302.858 403.513,298.858 401,294.5C 398.512,281.939 396.512,269.272 395,256.5C 393.518,249.702 390.351,243.868 385.5,239C 381.056,237.611 376.723,235.944 372.5,234C 361.169,234.074 349.836,234.074 338.5,234C 332.473,230.819 326.14,228.486 319.5,227C 312.623,224.044 305.956,220.711 299.5,217C 297.866,216.506 296.199,216.34 294.5,216.5C 299.771,213.527 305.104,210.527 310.5,207.5C 309.277,206.386 307.944,206.219 306.5,207C 301.265,209.785 295.932,212.285 290.5,214.5C 287.821,213.774 285.154,212.941 282.5,212C 276.385,206.281 271.885,199.447 269,191.5C 267.56,176.658 266.06,161.824 264.5,147C 268.199,135.599 274.199,125.599 282.5,117C 302.194,107.829 322.861,104.496 344.5,107C 348.763,107.895 352.763,109.395 356.5,111.5 Z"/></g>
<g><path style="opacity:1" fill="#023221" d="M 373.5,173.5 C 374.978,173.238 376.311,173.571 377.5,174.5C 370.324,178.588 362.991,182.422 355.5,186C 354.056,186.781 352.723,186.614 351.5,185.5C 358.737,181.311 366.071,177.311 373.5,173.5 Z"/></g>
<g><path style="opacity:1" fill="#023221" d="M 338.5,190.5 C 339.978,190.238 341.311,190.571 342.5,191.5C 335.324,195.588 327.991,199.422 320.5,203C 319.056,203.781 317.723,203.614 316.5,202.5C 323.737,198.311 331.071,194.311 338.5,190.5 Z"/></g>
<g><path style="opacity:1" fill="#3498db" d="M 180.5,239.5 C 174.572,254.409 166.239,267.742 155.5,279.5C 155.167,279.5 154.833,279.5 154.5,279.5C 144.15,269.824 135.983,258.49 130,245.5C 126.511,236.038 126.677,226.705 130.5,217.5C 138.926,205.191 150.26,201.358 164.5,206C 178.542,212.943 183.876,224.11 180.5,239.5 Z"/></g>
<g><path style="opacity:1" fill="#0d3228" d="M 294.5,216.5 C 291.849,217.49 289.183,218.49 286.5,219.5C 285.833,219.167 285.167,218.833 284.5,218.5C 286.397,216.983 288.397,215.65 290.5,214.5C 295.932,212.285 301.265,209.785 306.5,207C 307.944,206.219 309.277,206.386 310.5,207.5C 305.104,210.527 299.771,213.527 294.5,216.5 Z"/></g>
<g><path style="opacity:1" fill="#fbfdfd" d="M 149.5,217.5 C 158.729,216.192 164.896,219.859 168,228.5C 168.542,236.97 164.709,242.47 156.5,245C 144.526,244.685 139.36,238.518 141,226.5C 142.688,222.315 145.521,219.315 149.5,217.5 Z"/></g>
<g><path style="opacity:1" fill="#284148" d="M 272.5,222.5 C 273.978,222.238 275.311,222.571 276.5,223.5C 268.048,228.393 259.381,232.726 250.5,236.5C 250.33,235.178 250.663,234.011 251.5,233C 258.84,229.997 265.84,226.497 272.5,222.5 Z"/></g>
<g><path style="opacity:1" fill="#284148" d="M 240.5,237.5 C 241.978,237.238 243.311,237.571 244.5,238.5C 236.048,243.393 227.381,247.726 218.5,251.5C 218.33,250.178 218.663,249.011 219.5,248C 226.84,244.997 233.84,241.497 240.5,237.5 Z"/></g>
<g><path style="opacity:1" fill="#043323" d="M 208.5,253.5 C 211.567,253.121 212.567,254.121 211.5,256.5C 204.295,259.101 197.295,262.267 190.5,266C 189.056,266.781 187.723,266.614 186.5,265.5C 193.737,261.311 201.071,257.311 208.5,253.5 Z"/></g>
<g><path style="opacity:1" fill="#022f1f" d="M 154.5,279.5 C 154.833,279.5 155.167,279.5 155.5,279.5C 162.817,276.176 170.15,272.842 177.5,269.5C 178.167,269.833 178.833,270.167 179.5,270.5C 172.293,274.603 164.959,278.437 157.5,282C 154.457,282.862 153.457,282.029 154.5,279.5 Z"/></g>
</svg>
