<?xml version="1.0"?>
<svg xmlns="http://www.w3.org/2000/svg" xmlns:xlink="http://www.w3.org/1999/xlink" xmlns:svgjs="http://svgjs.com/svgjs" version="1.1" width="512" height="512" x="0" y="0" viewBox="0 0 579.035 579.035" style="enable-background:new 0 0 512 512" xml:space="preserve" class=""><g>
<g xmlns="http://www.w3.org/2000/svg">
	<g>
		<path d="M471.992,182.477C471.992,81.858,390.135,0,289.516,0S107.039,81.858,107.039,182.477v93.25    c0,4.048,2.653,7.62,6.527,8.789c0.875,0.263,1.769,0.392,2.653,0.392c3.017,0,5.915-1.493,7.647-4.104    c16.814-25.318,39.734-46.849,66.283-62.262c2.83-1.643,4.571-4.667,4.571-7.938v-28.128c0-52.274,42.528-94.798,94.799-94.798    c52.272,0,94.799,42.524,94.799,94.798v28.128c0,3.271,1.74,6.294,4.568,7.938c26.557,15.432,49.48,36.961,66.283,62.265    c1.73,2.61,4.629,4.104,7.646,4.104c0.881,0,1.775-0.128,2.652-0.392c3.877-1.169,6.527-4.74,6.527-8.788v-93.254H471.992z" fill="#3498db" data-original="#000000" style="" class=""/>
		<path d="M289.516,214.078c-100.619,0-182.477,81.858-182.477,182.479c0,100.619,81.858,182.479,182.477,182.479    c100.619,0,182.476-81.859,182.476-182.479C471.992,295.936,390.135,214.078,289.516,214.078z M316.906,388.154v90.574    c0,15.141-12.25,27.389-27.39,27.389c-15.141,0-27.39-12.248-27.39-27.389v-90.574c-16.077-9.521-27.39-26.322-27.39-46.383    c0-30.281,24.529-54.784,54.783-54.784c30.254,0,54.784,24.502,54.784,54.784C344.299,361.832,332.982,378.633,316.906,388.154z" fill="#3498db" data-original="#000000" style="" class=""/>
	</g>
</g>
<g xmlns="http://www.w3.org/2000/svg">
</g>
<g xmlns="http://www.w3.org/2000/svg">
</g>
<g xmlns="http://www.w3.org/2000/svg">
</g>
<g xmlns="http://www.w3.org/2000/svg">
</g>
<g xmlns="http://www.w3.org/2000/svg">
</g>
<g xmlns="http://www.w3.org/2000/svg">
</g>
<g xmlns="http://www.w3.org/2000/svg">
</g>
<g xmlns="http://www.w3.org/2000/svg">
</g>
<g xmlns="http://www.w3.org/2000/svg">
</g>
<g xmlns="http://www.w3.org/2000/svg">
</g>
<g xmlns="http://www.w3.org/2000/svg">
</g>
<g xmlns="http://www.w3.org/2000/svg">
</g>
<g xmlns="http://www.w3.org/2000/svg">
</g>
<g xmlns="http://www.w3.org/2000/svg">
</g>
<g xmlns="http://www.w3.org/2000/svg">
</g>
</g></svg>
