<?xml version="1.0" encoding="UTF-8"?>
<!DOCTYPE svg PUBLIC "-//W3C//DTD SVG 1.1//EN" "http://www.w3.org/Graphics/SVG/1.1/DTD/svg11.dtd">
<svg xmlns="http://www.w3.org/2000/svg" version="1.1" width="512px" height="512px" style="shape-rendering:geometricPrecision; text-rendering:geometricPrecision; image-rendering:optimizeQuality; fill-rule:evenodd; clip-rule:evenodd" xmlns:xlink="http://www.w3.org/1999/xlink">
<g><path style="opacity:0.004" fill="#24f2fc" d="M 325.5,81.5 C 324.71,80.5987 323.71,79.9321 322.5,79.5C 317.732,54.2864 303.399,36.1198 279.5,25C 261.391,17.8991 243.224,17.7325 225,24.5C 223.287,23.8626 223.121,22.8626 224.5,21.5C 224.102,15.1019 220.769,11.7686 214.5,11.5C 253.857,-4.04396 288.357,3.28937 318,33.5C 325.265,42.8662 331.099,53.0329 335.5,64C 333.622,65.5429 332.122,67.3762 331,69.5C 330.857,73.6192 330.19,77.6192 329,81.5C 327.855,80.3157 326.688,80.3157 325.5,81.5 Z"/></g>
<g><path style="opacity:0.004" fill="#20f5fd" d="M 511.5,5.5 C 511.5,11.1667 511.5,16.8333 511.5,22.5C 497.492,18.4151 483.492,18.5818 469.5,23C 458.5,23.6667 447.5,23.6667 436.5,23C 458.649,5.51602 483.649,-0.317311 511.5,5.5 Z"/></g>
<g><path style="opacity:0.008" fill="#1356d2" d="M 212.5,12.5 C 212.842,11.6618 213.508,11.3284 214.5,11.5C 214.158,12.3382 213.492,12.6716 212.5,12.5 Z"/></g>
<g><path style="opacity:0.004" fill="#240fa2" d="M 210.5,13.5 C 210.842,12.6618 211.508,12.3284 212.5,12.5C 212.158,13.3382 211.492,13.6716 210.5,13.5 Z"/></g>
<g><path style="opacity:0.016" fill="#2784d9" d="M 210.5,13.5 C 208.371,15.9501 205.704,17.6167 202.5,18.5C 204.629,16.0499 207.296,14.3833 210.5,13.5 Z"/></g>
<g><path style="opacity:0.004" fill="#2854ef" d="M 202.5,18.5 C 202.027,19.9063 201.027,20.573 199.5,20.5C 199.973,19.0937 200.973,18.427 202.5,18.5 Z"/></g>
<g><path style="opacity:0.008" fill="#007f7e" d="M 199.5,20.5 C 198.833,21.1667 198.833,21.1667 199.5,20.5 Z"/></g>
<g><path style="opacity:0.012" fill="#3273ec" d="M 189.5,39.5 C 187.629,39.1412 186.129,38.1412 185,36.5C 183.303,38.699 181.803,41.0324 180.5,43.5C 179.743,44.7733 179.077,44.7733 178.5,43.5C 180.362,39.4582 182.862,35.7916 186,32.5C 186.617,33.4491 186.451,34.2825 185.5,35C 187.041,36.3712 188.375,37.8712 189.5,39.5 Z"/></g>
<g><path style="opacity:0.004" fill="#1ef6fd" d="M 189.5,39.5 C 192.609,39.7359 195.609,39.4025 198.5,38.5C 199.167,39.1667 199.833,39.8333 200.5,40.5C 185.729,55.4766 179.063,73.4766 180.5,94.5C 179.176,99.4639 178.009,104.464 177,109.5C 169.019,119.977 169.853,129.644 179.5,138.5C 178.833,138.5 178.5,138.833 178.5,139.5C 178.517,144.268 179.184,148.934 180.5,153.5C 179.635,154.583 178.635,154.749 177.5,154C 158.69,145.596 152.19,131.429 158,111.5C 159.166,108.497 160.833,105.83 163,103.5C 162.321,86.9132 164.988,70.9132 171,55.5C 172.774,50.9305 175.274,46.9305 178.5,43.5C 179.077,44.7733 179.743,44.7733 180.5,43.5C 181.803,41.0324 183.303,38.699 185,36.5C 186.129,38.1412 187.629,39.1412 189.5,39.5 Z"/></g>
<g><path style="opacity:0.004" fill="#210dc0" d="M 200.5,40.5 C 199.833,39.8333 199.167,39.1667 198.5,38.5C 200.226,38.1854 201.893,38.0187 203.5,38C 202.627,39.045 201.627,39.8783 200.5,40.5 Z"/></g>
<g><path style="opacity:0.992" fill="#3397db" d="M 317.5,91.5 C 317.649,92.552 317.483,93.552 317,94.5C 316.29,93.0267 315.124,92.3601 313.5,92.5C 313.709,97.6659 314.709,102.666 316.5,107.5C 315.538,124.269 315.538,140.269 316.5,155.5C 315.5,155.5 314.5,155.5 313.5,155.5C 312.09,162.213 310.423,168.879 308.5,175.5C 308.68,176.554 309.013,177.554 309.5,178.5C 306.893,179.318 304.226,179.818 301.5,180C 296.594,186.205 290.761,191.371 284,195.5C 283.333,198.833 283.333,202.167 284,205.5C 295.426,210.795 306.926,215.962 318.5,221C 336.247,228.412 348.08,241.245 354,259.5C 361.188,262.02 366.522,266.687 370,273.5C 371.65,316.441 371.984,359.441 371,402.5C 368.167,410.667 362.667,416.167 354.5,419C 330.836,419.5 307.169,419.667 283.5,419.5C 283.5,424.833 283.5,430.167 283.5,435.5C 292.839,435.334 302.173,435.5 311.5,436C 312.416,436.374 313.25,436.874 314,437.5C 315.468,452.737 315.968,468.07 315.5,483.5C 272.833,483.5 230.167,483.5 187.5,483.5C 187.032,468.07 187.532,452.737 189,437.5C 189.75,436.874 190.584,436.374 191.5,436C 200.827,435.5 210.161,435.334 219.5,435.5C 219.5,430.167 219.5,424.833 219.5,419.5C 195.831,419.667 172.164,419.5 148.5,419C 140.333,416.167 134.833,410.667 132,402.5C 131.016,359.441 131.35,316.441 133,273.5C 136.478,266.687 141.812,262.02 149,259.5C 154.525,241.974 165.692,229.474 182.5,222C 194.741,216.629 206.908,211.129 219,205.5C 219.667,202.167 219.667,198.833 219,195.5C 203.702,186.04 193.535,172.707 188.5,155.5C 185.943,150.349 185.276,145.015 186.5,139.5C 187.494,129.013 187.828,118.346 187.5,107.5C 185.833,107.5 184.167,107.5 182.5,107.5C 182.962,102.838 183.462,98.1709 184,93.5C 185.401,91.8078 187.234,91.1412 189.5,91.5C 195.311,68.8524 209.311,53.6857 231.5,46C 262.497,37.9962 287.331,46.8295 306,72.5C 309.628,78.4171 312.128,84.7504 313.5,91.5C 314.833,91.5 316.167,91.5 317.5,91.5 Z M 295.5,109.5 C 296.461,111.265 296.795,113.265 296.5,115.5C 297.5,115.5 298.5,115.5 299.5,115.5C 299.748,126.536 299.248,137.536 298,148.5C 296.928,153.383 295.261,158.05 293,162.5C 291.644,163.38 290.144,163.714 288.5,163.5C 276.167,163.5 263.833,163.5 251.5,163.5C 251.5,168.833 251.5,174.167 251.5,179.5C 258.5,179.5 265.5,179.5 272.5,179.5C 273.552,179.351 274.552,179.517 275.5,180C 251.657,192.006 230.823,187.839 213,167.5C 205.467,155.269 202.3,141.936 203.5,127.5C 203.632,118.613 204.299,109.779 205.5,101C 207.561,83.9719 216.561,71.6386 232.5,64C 265.761,54.6286 287.761,66.2953 298.5,99C 296.888,99.7203 295.388,99.5536 294,98.5C 293.744,102.246 294.244,105.913 295.5,109.5 Z M 235.5,202.5 C 246.167,203.833 256.833,203.833 267.5,202.5C 267.933,208.834 266.766,214.834 264,220.5C 255.667,228.5 247.333,228.5 239,220.5C 236.234,214.834 235.067,208.834 235.5,202.5 Z M 220.5,223.5 C 231.933,243.364 248.266,248.531 269.5,239C 274.744,234.751 278.911,229.584 282,223.5C 294.092,229.129 306.259,234.629 318.5,240C 326.079,244.413 331.746,250.579 335.5,258.5C 279.5,259.833 223.5,259.833 167.5,258.5C 171.254,250.579 176.921,244.413 184.5,240C 196.71,234.725 208.71,229.225 220.5,223.5 Z M 155.5,275.5 C 219.501,275.333 283.501,275.5 347.5,276C 352,276.5 354.5,279 355,283.5C 355.667,320.833 355.667,358.167 355,395.5C 354.5,400 352,402.5 347.5,403C 326.169,403.5 304.836,403.667 283.5,403.5C 283.968,388.07 283.468,372.737 282,357.5C 281.25,356.874 280.416,356.374 279.5,356C 260.833,355.333 242.167,355.333 223.5,356C 222.584,356.374 221.75,356.874 221,357.5C 219.532,372.737 219.032,388.07 219.5,403.5C 198.164,403.667 176.831,403.5 155.5,403C 151,402.5 148.5,400 148,395.5C 147.333,358.167 147.333,320.833 148,283.5C 148.68,278.989 151.18,276.323 155.5,275.5 Z M 235.5,371.5 C 246.167,371.5 256.833,371.5 267.5,371.5C 267.5,392.833 267.5,414.167 267.5,435.5C 256.833,435.5 246.167,435.5 235.5,435.5C 235.5,414.167 235.5,392.833 235.5,371.5 Z M 203.5,451.5 C 235.5,451.5 267.5,451.5 299.5,451.5C 299.5,456.833 299.5,462.167 299.5,467.5C 267.5,467.5 235.5,467.5 203.5,467.5C 203.5,462.167 203.5,456.833 203.5,451.5 Z"/></g>
<g><path style="opacity:0.024" fill="#2f5ecd" d="M 322.5,79.5 C 323.71,79.9321 324.71,80.5987 325.5,81.5C 322.929,85.5178 321.929,84.8512 322.5,79.5 Z"/></g>
<g><path style="opacity:0.004" fill="#2deffd" d="M 295.5,109.5 C 295.5,111.5 295.5,113.5 295.5,115.5C 292.351,115.789 289.351,115.289 286.5,114C 282.318,109.651 277.985,105.485 273.5,101.5C 271.028,103.251 268.361,104.085 265.5,104C 263.089,102.045 260.589,100.211 258,98.5C 257.578,96.6447 257.078,94.8114 256.5,93C 261.481,89.5059 266.814,86.5059 272.5,84C 274.5,83.3333 276.5,83.3333 278.5,84C 282.967,87.4651 287.133,91.2984 291,95.5C 291.363,100.953 292.363,106.286 294,111.5C 294.278,110.584 294.778,109.918 295.5,109.5 Z"/></g>
<g><path style="opacity:0.004" fill="#14fafd" d="M 345.5,111.5 C 344.903,111.735 344.57,112.235 344.5,113C 345.29,116.356 346.29,119.523 347.5,122.5C 347.478,130.401 344.978,137.401 340,143.5C 339.505,145.473 339.338,147.473 339.5,149.5C 337.669,150.052 336.003,150.052 334.5,149.5C 335.813,142.561 336.313,135.561 336,128.5C 335.363,126.697 334.197,125.364 332.5,124.5C 331.878,118.605 329.211,113.938 324.5,110.5C 324.167,109.5 323.833,108.5 323.5,107.5C 324.373,101.198 324.706,94.8646 324.5,88.5C 330.021,91.7827 334.854,91.116 339,86.5C 337.839,95.9155 340.006,104.249 345.5,111.5 Z"/></g>
<g><path style="opacity:0.004" fill="#00fffe" d="M 324.5,88.5 C 323.833,87.1667 323.833,87.1667 324.5,88.5 Z"/></g>
<g><path style="opacity:0.004" fill="#36e6fb" d="M 210.5,99.5 C 213.518,99.3354 216.518,99.502 219.5,100C 215.541,103.826 214.541,108.326 216.5,113.5C 215.662,113.842 215.328,114.508 215.5,115.5C 212.833,115.5 210.167,115.5 207.5,115.5C 208.343,110.464 209.343,105.464 210.5,100.5C 210.5,100.167 210.5,99.8333 210.5,99.5 Z"/></g>
<g><path style="opacity:0.102" fill="#3586dc" d="M 210.5,99.5 C 210.5,99.8333 210.5,100.167 210.5,100.5C 209.504,100.414 208.671,100.748 208,101.5C 207.64,103.608 206.973,105.608 206,107.5C 206.083,104.881 206.25,102.214 206.5,99.5C 207.833,99.5 209.167,99.5 210.5,99.5 Z"/></g>
<g><path style="opacity:0.004" fill="#1df6fc" d="M 395.5,121.5 C 396.866,118.911 397.866,116.078 398.5,113C 398.43,112.235 398.097,111.735 397.5,111.5C 399.076,108.688 400.91,106.022 403,103.5C 403.667,117.167 403.667,130.833 403,144.5C 397.653,137.796 395.153,130.129 395.5,121.5 Z"/></g>
<g><path style="opacity:0.004" fill="#40ddfc" d="M 229.5,105.5 C 236.532,105.17 243.532,105.503 250.5,106.5C 249.907,108.382 249.24,110.215 248.5,112C 240.713,112.975 233.046,112.475 225.5,110.5C 223.865,111.046 222.199,111.38 220.5,111.5C 220.5,110.167 220.5,108.833 220.5,107.5C 223.689,107.142 226.689,106.475 229.5,105.5 Z"/></g>
<g><path style="opacity:0.008" fill="#2a88ec" d="M 317.5,91.5 C 318.822,91.33 319.989,91.6634 321,92.5C 321.801,95.367 321.634,98.0336 320.5,100.5C 320.752,103.32 320.252,105.986 319,108.5C 318.601,108.272 318.435,107.938 318.5,107.5C 318.664,104.813 318.497,102.146 318,99.5C 316.585,102.002 316.419,104.668 317.5,107.5C 317.167,107.5 316.833,107.5 316.5,107.5C 314.709,102.666 313.709,97.6659 313.5,92.5C 315.124,92.3601 316.29,93.0267 317,94.5C 317.483,93.552 317.649,92.552 317.5,91.5 Z"/></g>
<g><path style="opacity:0.004" fill="#00fffe" d="M 318.5,107.5 C 318.167,107.5 317.833,107.5 317.5,107.5C 316.419,104.668 316.585,102.002 318,99.5C 318.497,102.146 318.664,104.813 318.5,107.5 Z"/></g>
<g><path style="opacity:0.004" fill="#00fffe" d="M 320.5,100.5 C 318.797,98.1488 318.297,95.4822 319,92.5C 320.375,94.9368 320.875,97.6035 320.5,100.5 Z"/></g>
<g><path style="opacity:0.059" fill="#2885de" d="M 345.5,111.5 C 347.091,114.961 347.758,118.628 347.5,122.5C 346.29,119.523 345.29,116.356 344.5,113C 344.57,112.235 344.903,111.735 345.5,111.5 Z"/></g>
<g><path style="opacity:0.008" fill="#3768af" d="M 216.5,113.5 C 217.376,113.369 218.043,113.702 218.5,114.5C 217.675,115.386 216.675,115.719 215.5,115.5C 215.328,114.508 215.662,113.842 216.5,113.5 Z"/></g>
<g><path style="opacity:0.027" fill="#2793e4" d="M 397.5,111.5 C 398.097,111.735 398.43,112.235 398.5,113C 397.866,116.078 396.866,118.911 395.5,121.5C 395.311,117.963 395.977,114.63 397.5,111.5 Z"/></g>
<g><path style="opacity:0.004" fill="#00fffe" d="M 267.5,123.5 C 270.959,124.646 274.459,125.646 278,126.5C 279.658,126.325 280.991,125.658 282,124.5C 283.388,129.372 283.888,134.372 283.5,139.5C 278.167,139.5 272.833,139.5 267.5,139.5C 267.5,134.167 267.5,128.833 267.5,123.5 Z"/></g>
<g><path style="opacity:0.004" fill="#54b6ff" d="M 228.5,125.5 C 230.657,126.053 230.49,127.053 228,128.5C 227.53,127.423 227.697,126.423 228.5,125.5 Z"/></g>
<g><path style="opacity:0.004" fill="#53baff" d="M 234.5,134.5 C 235.451,135.919 235.784,137.585 235.5,139.5C 233.801,139.66 232.134,139.494 230.5,139C 232.041,137.629 233.375,136.129 234.5,134.5 Z"/></g>
<g><path style="opacity:0.004" fill="#3ae7ff" d="M 326.5,134.5 C 327.653,140.653 327.82,146.986 327,153.5C 326.5,154 326,154.5 325.5,155C 323.62,154.49 321.787,154.657 320,155.5C 319.688,149.801 319.188,144.134 318.5,138.5C 322.019,138.741 324.685,137.407 326.5,134.5 Z"/></g>
<g><path style="opacity:0.004" fill="#17e4e7" d="M 184.5,139.5 C 185.167,139.5 185.833,139.5 186.5,139.5C 185.276,145.015 185.943,150.349 188.5,155.5C 186.5,155.5 184.5,155.5 182.5,155.5C 182.433,154.041 182.766,152.708 183.5,151.5C 184.483,147.702 184.817,143.702 184.5,139.5 Z"/></g>
<g><path style="opacity:0.024" fill="#2f84e6" d="M 184.5,139.5 C 184.817,143.702 184.483,147.702 183.5,151.5C 181.814,147.467 180.147,143.467 178.5,139.5C 178.5,138.833 178.833,138.5 179.5,138.5C 181.259,137.739 182.926,138.072 184.5,139.5 Z"/></g>
<g><path style="opacity:0.004" fill="#04fdff" d="M 288.5,163.5 C 288.392,165.783 287.559,167.783 286,169.5C 281.317,172.697 276.817,176.03 272.5,179.5C 265.5,179.5 258.5,179.5 251.5,179.5C 251.5,174.167 251.5,168.833 251.5,163.5C 263.833,163.5 276.167,163.5 288.5,163.5 Z"/></g>
<g><path style="opacity:0.063" fill="#2f77d6" d="M 313.5,163.5 C 315.97,164.36 316.137,165.694 314,167.5C 313.51,166.207 313.343,164.873 313.5,163.5 Z"/></g>
<g><path style="opacity:0.004" fill="#2fe5f8" d="M 337.5,165.5 C 338.497,165.47 339.164,165.97 339.5,167C 337.32,173.18 333.154,177.346 327,179.5C 327.168,176.328 328.168,173.328 330,170.5C 332.479,168.686 334.979,167.019 337.5,165.5 Z"/></g>
<g><path style="opacity:0.996" fill="#3296da" d="M 403.5,234.5 C 404.773,235.077 404.773,235.743 403.5,236.5C 402.537,236.03 402.537,235.363 403.5,234.5 Z"/></g>
</svg>
