<?xml version="1.0" encoding="UTF-8"?>
<!DOCTYPE svg PUBLIC "-//W3C//DTD SVG 1.1//EN" "http://www.w3.org/Graphics/SVG/1.1/DTD/svg11.dtd">
<svg xmlns="http://www.w3.org/2000/svg" version="1.1" width="512px" height="512px" style="shape-rendering:geometricPrecision; text-rendering:geometricPrecision; image-rendering:optimizeQuality; fill-rule:evenodd; clip-rule:evenodd" xmlns:xlink="http://www.w3.org/1999/xlink">
<g><path style="opacity:0.004" fill="#24f2fc" d="M 209.5,93.5 C 208.71,92.5987 207.71,91.9321 206.5,91.5C 201.732,66.2864 187.399,48.1198 163.5,37C 145.391,29.8991 127.224,29.7325 109,36.5C 107.287,35.8626 107.121,34.8626 108.5,33.5C 108.102,27.1019 104.769,23.7686 98.5,23.5C 137.857,7.95604 172.357,15.2894 202,45.5C 209.265,54.8662 215.099,65.0329 219.5,76C 217.622,77.5429 216.122,79.3762 215,81.5C 214.857,85.6192 214.19,89.6192 213,93.5C 211.855,92.3157 210.688,92.3157 209.5,93.5 Z"/></g>
<g><path style="opacity:0.004" fill="#23f4fd" d="M 412.5,23.5 C 404.868,24.1222 401.868,28.1222 403.5,35.5C 403,35.8333 402.5,36.1667 402,36.5C 360.268,24.2055 329.268,37.2055 309,75.5C 306.856,81.0408 305.356,86.3741 304.5,91.5C 303.29,91.9321 302.29,92.5987 301.5,93.5C 300.609,92.8902 299.609,92.5569 298.5,92.5C 297.903,89.0588 297.237,85.7254 296.5,82.5C 295.432,79.9248 293.765,77.7581 291.5,76C 306.536,37.9702 334.536,17.8036 375.5,15.5C 388.545,15.5012 400.879,18.1679 412.5,23.5 Z"/></g>
<g><path style="opacity:0.008" fill="#1356d2" d="M 96.5,24.5 C 96.8417,23.6618 97.5084,23.3284 98.5,23.5C 98.1583,24.3382 97.4916,24.6716 96.5,24.5 Z"/></g>
<g><path style="opacity:0.008" fill="#102fa8" d="M 412.5,23.5 C 413.492,23.3284 414.158,23.6618 414.5,24.5C 413.508,24.6716 412.842,24.3382 412.5,23.5 Z"/></g>
<g><path style="opacity:0.004" fill="#240fa2" d="M 94.5,25.5 C 94.8417,24.6618 95.5084,24.3284 96.5,24.5C 96.1583,25.3382 95.4916,25.6716 94.5,25.5 Z"/></g>
<g><path style="opacity:0.004" fill="#0000d2" d="M 414.5,24.5 C 415.492,24.3284 416.158,24.6618 416.5,25.5C 415.508,25.6716 414.842,25.3382 414.5,24.5 Z"/></g>
<g><path style="opacity:0.094" fill="#2484c5" d="M 416.5,25.5 C 420.683,27.0875 424.35,29.4208 427.5,32.5C 423.317,30.9125 419.65,28.5792 416.5,25.5 Z"/></g>
<g><path style="opacity:0.016" fill="#2784d9" d="M 94.5,25.5 C 92.3709,27.9501 89.7043,29.6167 86.5,30.5C 88.6291,28.0499 91.2957,26.3833 94.5,25.5 Z"/></g>
<g><path style="opacity:0.004" fill="#2854ef" d="M 86.5,30.5 C 86.0269,31.9063 85.0269,32.573 83.5,32.5C 83.9731,31.0937 84.9731,30.427 86.5,30.5 Z"/></g>
<g><path style="opacity:0.008" fill="#007f7e" d="M 83.5,32.5 C 82.8333,33.1667 82.8333,33.1667 83.5,32.5 Z"/></g>
<g><path style="opacity:0.008" fill="#007eff" d="M 427.5,32.5 C 428.833,33.1667 428.833,33.1667 427.5,32.5 Z"/></g>
<g><path style="opacity:0.012" fill="#3273ec" d="M 73.5,51.5 C 71.629,51.1412 70.129,50.1412 69,48.5C 67.3029,50.699 65.8029,53.0324 64.5,55.5C 63.7435,56.7733 63.0768,56.7733 62.5,55.5C 64.3623,51.4582 66.8623,47.7916 70,44.5C 70.6172,45.4491 70.4506,46.2825 69.5,47C 71.0414,48.3712 72.3747,49.8712 73.5,51.5 Z"/></g>
<g><path style="opacity:0.004" fill="#1ef6fd" d="M 73.5,51.5 C 76.6085,51.7359 79.6085,51.4025 82.5,50.5C 83.1667,51.1667 83.8333,51.8333 84.5,52.5C 69.7294,67.4766 63.0627,85.4766 64.5,106.5C 63.1757,111.464 62.009,116.464 61,121.5C 53.0194,131.977 53.8527,141.644 63.5,150.5C 62.8333,150.5 62.5,150.833 62.5,151.5C 62.517,156.268 63.1837,160.934 64.5,165.5C 63.635,166.583 62.635,166.749 61.5,166C 42.6899,157.596 36.1899,143.429 42,123.5C 43.1662,120.497 44.8328,117.83 47,115.5C 46.3213,98.9132 48.9879,82.9132 55,67.5C 56.7744,62.9305 59.2744,58.9305 62.5,55.5C 63.0768,56.7733 63.7435,56.7733 64.5,55.5C 65.8029,53.0324 67.3029,50.699 69,48.5C 70.129,50.1412 71.629,51.1412 73.5,51.5 Z"/></g>
<g><path style="opacity:0.004" fill="#1cf7fd" d="M 446.5,52.5 C 456.103,64.734 461.603,78.734 463,94.5C 463.333,101.5 463.667,108.5 464,115.5C 473.998,128.82 473.998,142.154 464,155.5C 463.667,157.167 463.333,158.833 463,160.5C 460.892,159.388 459.392,160.054 458.5,162.5C 458.167,162.5 457.833,162.5 457.5,162.5C 455.481,159.866 453.481,160.033 451.5,163C 450.207,163.49 448.873,163.657 447.5,163.5C 447.646,159.481 447.979,155.481 448.5,151.5C 448.5,150.833 448.167,150.5 447.5,150.5C 457.068,141.954 457.901,132.621 450,122.5C 449.15,117.099 447.983,111.766 446.5,106.5C 447.937,85.4766 441.271,67.4766 426.5,52.5C 427.167,51.8333 427.833,51.1667 428.5,50.5C 432.39,52.0539 436.057,51.7206 439.5,49.5C 440.329,50.3324 441.162,49.999 442,48.5C 443.333,50.5 444.667,52.5 446,54.5C 446.464,53.9056 446.631,53.2389 446.5,52.5 Z"/></g>
<g><path style="opacity:0.008" fill="#2478f4" d="M 446.5,52.5 C 446.631,53.2389 446.464,53.9056 446,54.5C 444.667,52.5 443.333,50.5 442,48.5C 441.162,49.999 440.329,50.3324 439.5,49.5C 439.953,48.5416 440.619,47.7083 441.5,47C 440.549,46.2825 440.383,45.4491 441,44.5C 443.1,47.0507 444.933,49.7173 446.5,52.5 Z"/></g>
<g><path style="opacity:0.004" fill="#210dc0" d="M 84.5,52.5 C 83.8333,51.8333 83.1667,51.1667 82.5,50.5C 84.2259,50.1854 85.8925,50.0187 87.5,50C 86.6266,51.045 85.6266,51.8783 84.5,52.5 Z"/></g>
<g><path style="opacity:0.004" fill="#210dc0" d="M 428.5,50.5 C 427.833,51.1667 427.167,51.8333 426.5,52.5C 425.373,51.8783 424.373,51.045 423.5,50C 425.107,50.0187 426.774,50.1854 428.5,50.5 Z"/></g>
<g><path style="opacity:0.992" fill="#3397db" d="M 201.5,103.5 C 201.649,104.552 201.483,105.552 201,106.5C 200.29,105.027 199.124,104.36 197.5,104.5C 197.709,109.666 198.709,114.666 200.5,119.5C 199.538,136.269 199.538,152.269 200.5,167.5C 199.5,167.5 198.5,167.5 197.5,167.5C 196.09,174.213 194.423,180.879 192.5,187.5C 192.68,188.554 193.013,189.554 193.5,190.5C 190.893,191.318 188.226,191.818 185.5,192C 180.594,198.205 174.761,203.371 168,207.5C 167.333,210.833 167.333,214.167 168,217.5C 179.426,222.795 190.926,227.962 202.5,233C 220.247,240.412 232.08,253.245 238,271.5C 246.284,274.617 252.117,280.283 255.5,288.5C 258.883,280.283 264.716,274.617 273,271.5C 278.525,253.974 289.692,241.474 306.5,234C 318.741,228.629 330.908,223.129 343,217.5C 343.667,214.167 343.667,210.833 343,207.5C 327.616,198.28 317.783,184.946 313.5,167.5C 312.5,167.5 311.5,167.5 310.5,167.5C 310.017,161.543 309.85,155.876 310,150.5C 310.333,150.833 310.667,151.167 311,151.5C 311.667,141.167 311.667,130.833 311,120.5C 310,119.167 309,119.167 308,120.5C 306.847,117.245 306.013,113.912 305.5,110.5C 306.117,110.611 306.617,110.944 307,111.5C 309.041,108.735 308.874,106.401 306.5,104.5C 308.607,103.532 310.941,103.198 313.5,103.5C 319.311,80.8524 333.311,65.6857 355.5,58C 386.497,49.9962 411.331,58.8295 430,84.5C 433.628,90.4171 436.128,96.7504 437.5,103.5C 440.238,102.965 442.072,103.965 443,106.5C 443.465,110.848 443.965,115.181 444.5,119.5C 442.833,119.5 441.167,119.5 439.5,119.5C 439.5,130.167 439.5,140.833 439.5,151.5C 441.677,151.414 443.677,150.747 445.5,149.5C 446.183,149.863 446.85,150.196 447.5,150.5C 448.167,150.5 448.5,150.833 448.5,151.5C 447.833,152.833 447.167,154.167 446.5,155.5C 446.719,154.325 446.386,153.325 445.5,152.5C 445.167,152.833 444.833,153.167 444.5,153.5C 443.889,156.236 443.555,158.902 443.5,161.5C 443.5,162.167 443.5,162.833 443.5,163.5C 442.679,160.359 442.179,157.025 442,153.5C 441.452,158.361 440.285,163.027 438.5,167.5C 436.446,171.875 434.946,176.541 434,181.5C 427.388,192.112 418.721,200.779 408,207.5C 407.333,210.833 407.333,214.167 408,217.5C 419.426,222.795 430.926,227.962 442.5,233C 460.247,240.412 472.08,253.245 478,271.5C 485.188,274.02 490.522,278.687 494,285.5C 495.65,328.441 495.984,371.441 495,414.5C 492.167,422.667 486.667,428.167 478.5,431C 454.836,431.5 431.169,431.667 407.5,431.5C 407.5,436.833 407.5,442.167 407.5,447.5C 416.839,447.334 426.173,447.5 435.5,448C 436.416,448.374 437.25,448.874 438,449.5C 439.468,464.737 439.968,480.07 439.5,495.5C 396.833,495.5 354.167,495.5 311.5,495.5C 311.032,480.07 311.532,464.737 313,449.5C 313.75,448.874 314.584,448.374 315.5,448C 324.827,447.5 334.161,447.334 343.5,447.5C 343.5,442.167 343.5,436.833 343.5,431.5C 319.831,431.667 296.164,431.5 272.5,431C 264.383,428.051 258.717,422.551 255.5,414.5C 252.283,422.551 246.617,428.051 238.5,431C 214.836,431.5 191.169,431.667 167.5,431.5C 167.5,436.833 167.5,442.167 167.5,447.5C 176.839,447.334 186.173,447.5 195.5,448C 196.416,448.374 197.25,448.874 198,449.5C 199.468,464.737 199.968,480.07 199.5,495.5C 156.833,495.5 114.167,495.5 71.5,495.5C 71.0318,480.07 71.5318,464.737 73,449.5C 73.7504,448.874 74.5838,448.374 75.5,448C 84.8274,447.5 94.1607,447.334 103.5,447.5C 103.5,442.167 103.5,436.833 103.5,431.5C 79.831,431.667 56.1643,431.5 32.5,431C 24.3333,428.167 18.8333,422.667 16,414.5C 15.0164,371.441 15.3497,328.441 17,285.5C 20.4784,278.687 25.8118,274.02 33,271.5C 38.525,253.974 49.6916,241.474 66.5,234C 78.7413,228.629 90.908,223.129 103,217.5C 103.667,214.167 103.667,210.833 103,207.5C 87.7016,198.04 77.5349,184.707 72.5,167.5C 69.9429,162.349 69.2762,157.015 70.5,151.5C 71.4944,141.013 71.8278,130.346 71.5,119.5C 69.8333,119.5 68.1667,119.5 66.5,119.5C 66.9625,114.838 67.4625,110.171 68,105.5C 69.4007,103.808 71.2341,103.141 73.5,103.5C 79.3114,80.8524 93.3114,65.6857 115.5,58C 146.497,49.9962 171.331,58.8295 190,84.5C 193.628,90.4171 196.128,96.7504 197.5,103.5C 198.833,103.5 200.167,103.5 201.5,103.5 Z M 179.5,121.5 C 180.461,123.265 180.795,125.265 180.5,127.5C 181.5,127.5 182.5,127.5 183.5,127.5C 183.748,138.536 183.248,149.536 182,160.5C 180.928,165.383 179.261,170.05 177,174.5C 175.644,175.38 174.144,175.714 172.5,175.5C 160.167,175.5 147.833,175.5 135.5,175.5C 135.5,180.833 135.5,186.167 135.5,191.5C 142.5,191.5 149.5,191.5 156.5,191.5C 157.552,191.351 158.552,191.517 159.5,192C 135.657,204.006 114.823,199.839 97,179.5C 89.4669,167.269 86.3002,153.936 87.5,139.5C 87.6324,130.613 88.299,121.779 89.5,113C 91.5614,95.9719 100.561,83.6386 116.5,76C 149.761,66.6286 171.761,78.2953 182.5,111C 180.888,111.72 179.388,111.554 178,110.5C 177.744,114.246 178.244,117.913 179.5,121.5 Z M 407.5,181.5 C 406.833,181.5 406.5,181.833 406.5,182.5C 405.167,182.833 405.167,183.167 406.5,183.5C 402.943,191.126 396.943,195.626 388.5,197C 360.03,202.512 340.53,191.678 330,164.5C 327.865,152.27 327.032,139.937 327.5,127.5C 328.5,127.5 329.5,127.5 330.5,127.5C 330.205,125.265 330.539,123.265 331.5,121.5C 331.5,123.5 331.5,125.5 331.5,127.5C 335.5,127.5 339.5,127.5 343.5,127.5C 342.331,120.337 344.998,115.171 351.5,112C 346.177,111.501 340.844,111.334 335.5,111.5C 335.821,114.577 334.821,116.91 332.5,118.5C 332.674,116.139 333.007,113.806 333.5,111.5C 331.801,111.66 330.134,111.494 328.5,111C 339.239,78.2953 361.239,66.6286 394.5,76C 410.439,83.6386 419.439,95.9719 421.5,113C 423.846,128.802 424.012,144.635 422,160.5C 420.928,165.383 419.261,170.05 417,174.5C 414.527,175.12 412.027,175.786 409.5,176.5C 408.544,178.075 407.877,179.742 407.5,181.5 Z M 332.5,118.5 C 334.117,121.076 333.783,122.076 331.5,121.5C 331.263,120.209 331.596,119.209 332.5,118.5 Z M 406.5,183.5 C 406.5,183.167 406.5,182.833 406.5,182.5C 407.167,182.5 407.5,182.167 407.5,181.5C 408.898,179.891 410.565,179.058 412.5,179C 410.886,181.127 408.886,182.627 406.5,183.5 Z M 119.5,214.5 C 130.167,215.833 140.833,215.833 151.5,214.5C 151.933,220.834 150.766,226.834 148,232.5C 139.667,240.5 131.333,240.5 123,232.5C 120.234,226.834 119.067,220.834 119.5,214.5 Z M 359.5,214.5 C 370.167,215.833 380.833,215.833 391.5,214.5C 391.933,220.834 390.766,226.834 388,232.5C 379.667,240.5 371.333,240.5 363,232.5C 360.234,226.834 359.067,220.834 359.5,214.5 Z M 104.5,235.5 C 115.933,255.364 132.266,260.531 153.5,251C 158.744,246.751 162.911,241.584 166,235.5C 178.092,241.129 190.259,246.629 202.5,252C 210.079,256.413 215.746,262.579 219.5,270.5C 163.5,271.833 107.5,271.833 51.5,270.5C 55.2539,262.579 60.9206,256.413 68.5,252C 80.7099,246.725 92.7099,241.225 104.5,235.5 Z M 344.5,235.5 C 355.933,255.364 372.266,260.531 393.5,251C 398.744,246.751 402.911,241.584 406,235.5C 418.092,241.129 430.259,246.629 442.5,252C 450.079,256.413 455.746,262.579 459.5,270.5C 403.5,271.833 347.5,271.833 291.5,270.5C 295.254,262.579 300.921,256.413 308.5,252C 320.71,246.725 332.71,241.225 344.5,235.5 Z M 39.5,287.5 C 103.501,287.333 167.501,287.5 231.5,288C 236,288.5 238.5,291 239,295.5C 239.667,332.833 239.667,370.167 239,407.5C 238.5,412 236,414.5 231.5,415C 210.169,415.5 188.836,415.667 167.5,415.5C 167.968,400.07 167.468,384.737 166,369.5C 165.25,368.874 164.416,368.374 163.5,368C 144.833,367.333 126.167,367.333 107.5,368C 106.584,368.374 105.75,368.874 105,369.5C 103.532,384.737 103.032,400.07 103.5,415.5C 82.1641,415.667 60.8307,415.5 39.5,415C 35,414.5 32.5,412 32,407.5C 31.3333,370.167 31.3333,332.833 32,295.5C 32.6804,290.989 35.1804,288.323 39.5,287.5 Z M 279.5,287.5 C 343.501,287.333 407.501,287.5 471.5,288C 476,288.5 478.5,291 479,295.5C 479.667,332.833 479.667,370.167 479,407.5C 478.5,412 476,414.5 471.5,415C 450.169,415.5 428.836,415.667 407.5,415.5C 407.968,400.07 407.468,384.737 406,369.5C 405.25,368.874 404.416,368.374 403.5,368C 384.833,367.333 366.167,367.333 347.5,368C 346.584,368.374 345.75,368.874 345,369.5C 343.532,384.737 343.032,400.07 343.5,415.5C 322.164,415.667 300.831,415.5 279.5,415C 275,414.5 272.5,412 272,407.5C 271.333,370.167 271.333,332.833 272,295.5C 272.68,290.989 275.18,288.323 279.5,287.5 Z M 119.5,383.5 C 130.167,383.5 140.833,383.5 151.5,383.5C 151.5,404.833 151.5,426.167 151.5,447.5C 140.833,447.5 130.167,447.5 119.5,447.5C 119.5,426.167 119.5,404.833 119.5,383.5 Z M 359.5,383.5 C 370.167,383.5 380.833,383.5 391.5,383.5C 391.5,404.833 391.5,426.167 391.5,447.5C 380.833,447.5 370.167,447.5 359.5,447.5C 359.5,426.167 359.5,404.833 359.5,383.5 Z M 87.5,463.5 C 119.5,463.5 151.5,463.5 183.5,463.5C 183.5,468.833 183.5,474.167 183.5,479.5C 151.5,479.5 119.5,479.5 87.5,479.5C 87.5,474.167 87.5,468.833 87.5,463.5 Z M 327.5,463.5 C 359.5,463.5 391.5,463.5 423.5,463.5C 423.5,468.833 423.5,474.167 423.5,479.5C 391.5,479.5 359.5,479.5 327.5,479.5C 327.5,474.167 327.5,468.833 327.5,463.5 Z"/></g>
<g><path style="opacity:0.004" fill="#1d0ad3" d="M 296.5,82.5 C 297.237,85.7254 297.903,89.0588 298.5,92.5C 298.19,93.7383 297.69,93.7383 297,92.5C 296.502,89.1832 296.335,85.8499 296.5,82.5 Z"/></g>
<g><path style="opacity:0.024" fill="#2f5ecd" d="M 206.5,91.5 C 207.71,91.9321 208.71,92.5987 209.5,93.5C 206.929,97.5178 205.929,96.8512 206.5,91.5 Z"/></g>
<g><path style="opacity:0.024" fill="#3293e8" d="M 304.5,91.5 C 305.071,96.8512 304.071,97.5178 301.5,93.5C 302.29,92.5987 303.29,91.9321 304.5,91.5 Z"/></g>
<g><path style="opacity:0.004" fill="#2deffd" d="M 179.5,121.5 C 179.5,123.5 179.5,125.5 179.5,127.5C 176.351,127.789 173.351,127.289 170.5,126C 166.318,121.651 161.985,117.485 157.5,113.5C 155.028,115.251 152.361,116.085 149.5,116C 147.089,114.045 144.589,112.211 142,110.5C 141.578,108.645 141.078,106.811 140.5,105C 145.481,101.506 150.814,98.5059 156.5,96C 158.5,95.3333 160.5,95.3333 162.5,96C 166.967,99.4651 171.133,103.298 175,107.5C 175.363,112.953 176.363,118.286 178,123.5C 178.278,122.584 178.778,121.918 179.5,121.5 Z"/></g>
<g><path style="opacity:0.004" fill="#14fafd" d="M 229.5,123.5 C 228.903,123.735 228.57,124.235 228.5,125C 229.29,128.356 230.29,131.523 231.5,134.5C 231.478,142.401 228.978,149.401 224,155.5C 223.505,157.473 223.338,159.473 223.5,161.5C 221.669,162.052 220.003,162.052 218.5,161.5C 219.813,154.561 220.313,147.561 220,140.5C 219.363,138.697 218.197,137.364 216.5,136.5C 215.878,130.605 213.211,125.938 208.5,122.5C 208.167,121.5 207.833,120.5 207.5,119.5C 208.373,113.198 208.706,106.865 208.5,100.5C 214.021,103.783 218.854,103.116 223,98.5C 221.839,107.915 224.006,116.249 229.5,123.5 Z"/></g>
<g><path style="opacity:0.004" fill="#14fafe" d="M 302.5,100.5 C 301.993,106.786 302.327,113.119 303.5,119.5C 302.272,122.238 300.438,124.571 298,126.5C 296.534,129.732 295.367,133.065 294.5,136.5C 292.803,137.364 291.637,138.697 291,140.5C 291.12,147.161 291.12,153.827 291,160.5C 283.186,153.232 279.353,144.232 279.5,133.5C 280.866,130.911 281.866,128.078 282.5,125C 282.43,124.235 282.097,123.735 281.5,123.5C 286.994,116.249 289.161,107.915 288,98.5C 292.146,103.116 296.979,103.783 302.5,100.5 Z"/></g>
<g><path style="opacity:0.004" fill="#00fffe" d="M 208.5,100.5 C 207.833,99.1667 207.833,99.1667 208.5,100.5 Z"/></g>
<g><path style="opacity:0.004" fill="#00fffe" d="M 302.5,99.5 C 303.833,100.167 303.833,100.167 302.5,99.5 Z"/></g>
<g><path style="opacity:0.345" fill="#3282e2" d="M 416.5,112.5 C 415.674,110.736 414.341,109.402 412.5,108.5C 411.036,106.37 409.036,105.037 406.5,104.5C 409.101,102.003 408.435,100.337 404.5,99.5C 402.866,99.968 401.7,100.968 401,102.5C 400.722,101.584 400.222,100.918 399.5,100.5C 390.156,100.842 389.822,100.842 398.5,100.5C 398.5,101.5 398.5,102.5 398.5,103.5C 395.661,103.031 392.995,103.031 390.5,103.5C 388.17,103.163 385.837,103.163 383.5,103.5C 382.304,103.154 382.304,102.654 383.5,102C 387.779,100.527 391.779,98.5272 395.5,96C 398.167,95.3333 400.833,95.3333 403.5,96C 408.672,101.505 414.172,106.672 420,111.5C 420.995,114.126 421.328,116.793 421,119.5C 420.069,117.541 419.236,115.541 418.5,113.5C 418.043,112.702 417.376,112.369 416.5,112.5 Z"/></g>
<g><path style="opacity:0.004" fill="#00fffe" d="M 399.5,100.5 C 399.167,100.5 398.833,100.5 398.5,100.5C 389.822,100.842 390.156,100.842 399.5,100.5 Z"/></g>
<g><path style="opacity:0.02" fill="#2b98c4" d="M 406.5,104.5 C 405.298,103.595 403.964,103.595 402.5,104.5C 401.432,103.566 400.099,103.232 398.5,103.5C 398.5,102.5 398.5,101.5 398.5,100.5C 398.833,100.5 399.167,100.5 399.5,100.5C 400.222,100.918 400.722,101.584 401,102.5C 401.7,100.968 402.866,99.968 404.5,99.5C 408.435,100.337 409.101,102.003 406.5,104.5 Z"/></g>
<g><path style="opacity:0.004" fill="#28daf6" d="M 306.5,104.5 C 308.874,106.401 309.041,108.735 307,111.5C 306.617,110.944 306.117,110.611 305.5,110.5C 305.205,108.265 305.539,106.265 306.5,104.5 Z"/></g>
<g><path style="opacity:0.004" fill="#3be1fc" d="M 412.5,108.5 C 414.341,109.402 415.674,110.736 416.5,112.5C 417.392,117.516 418.392,122.516 419.5,127.5C 416.017,128.084 413.017,127.251 410.5,125C 411.61,122.263 411.777,119.429 411,116.5C 409.023,113.688 406.856,111.022 404.5,108.5C 406.904,109.374 409.57,109.374 412.5,108.5 Z"/></g>
<g><path style="opacity:0.004" fill="#36e6fb" d="M 94.5,111.5 C 97.5184,111.335 100.518,111.502 103.5,112C 99.5413,115.826 98.5413,120.326 100.5,125.5C 99.6618,125.842 99.3284,126.508 99.5,127.5C 96.8333,127.5 94.1667,127.5 91.5,127.5C 92.3426,122.464 93.3426,117.464 94.5,112.5C 94.5,112.167 94.5,111.833 94.5,111.5 Z"/></g>
<g><path style="opacity:0.004" fill="#18f9ff" d="M 331.5,121.5 C 333.783,122.076 334.117,121.076 332.5,118.5C 334.821,116.91 335.821,114.577 335.5,111.5C 340.844,111.334 346.177,111.501 351.5,112C 344.998,115.171 342.331,120.337 343.5,127.5C 339.5,127.5 335.5,127.5 331.5,127.5C 331.5,125.5 331.5,123.5 331.5,121.5 Z"/></g>
<g><path style="opacity:0.102" fill="#3586dc" d="M 94.5,111.5 C 94.5,111.833 94.5,112.167 94.5,112.5C 93.5041,112.414 92.6708,112.748 92,113.5C 91.6401,115.608 90.9734,117.608 90,119.5C 90.0833,116.881 90.25,114.214 90.5,111.5C 91.8333,111.5 93.1667,111.5 94.5,111.5 Z"/></g>
<g><path style="opacity:0.004" fill="#40ddfc" d="M 113.5,117.5 C 120.532,117.17 127.532,117.503 134.5,118.5C 133.907,120.382 133.24,122.215 132.5,124C 124.713,124.975 117.046,124.475 109.5,122.5C 107.865,123.046 106.199,123.38 104.5,123.5C 104.5,122.167 104.5,120.833 104.5,119.5C 107.689,119.142 110.689,118.475 113.5,117.5 Z"/></g>
<g><path style="opacity:0.004" fill="#4dccff" d="M 382.5,117.5 C 389.861,117.082 390.194,118.082 383.5,120.5C 382.614,119.675 382.281,118.675 382.5,117.5 Z"/></g>
<g><path style="opacity:0.008" fill="#2a88ec" d="M 201.5,103.5 C 202.822,103.33 203.989,103.663 205,104.5C 205.801,107.367 205.634,110.034 204.5,112.5C 204.752,115.32 204.252,117.986 203,120.5C 202.601,120.272 202.435,119.938 202.5,119.5C 202.664,116.813 202.497,114.146 202,111.5C 200.585,114.002 200.419,116.668 201.5,119.5C 201.167,119.5 200.833,119.5 200.5,119.5C 198.709,114.666 197.709,109.666 197.5,104.5C 199.124,104.36 200.29,105.027 201,106.5C 201.483,105.552 201.649,104.552 201.5,103.5 Z"/></g>
<g><path style="opacity:0.004" fill="#00fffe" d="M 202.5,119.5 C 202.167,119.5 201.833,119.5 201.5,119.5C 200.419,116.668 200.585,114.002 202,111.5C 202.497,114.146 202.664,116.813 202.5,119.5 Z"/></g>
<g><path style="opacity:0.004" fill="#00fffe" d="M 204.5,112.5 C 202.797,110.149 202.297,107.482 203,104.5C 204.375,106.937 204.875,109.603 204.5,112.5 Z"/></g>
<g><path style="opacity:0.004" fill="#5792ff" d="M 404.5,120.5 C 405.077,119.227 405.743,119.227 406.5,120.5C 406.03,121.463 405.363,121.463 404.5,120.5 Z"/></g>
<g><path style="opacity:0.059" fill="#2885de" d="M 229.5,123.5 C 231.091,126.961 231.758,130.628 231.5,134.5C 230.29,131.523 229.29,128.356 228.5,125C 228.57,124.235 228.903,123.735 229.5,123.5 Z"/></g>
<g><path style="opacity:0.008" fill="#3768af" d="M 100.5,125.5 C 101.376,125.369 102.043,125.702 102.5,126.5C 101.675,127.386 100.675,127.719 99.5,127.5C 99.3284,126.508 99.6618,125.842 100.5,125.5 Z"/></g>
<g><path style="opacity:0.027" fill="#2793e4" d="M 281.5,123.5 C 282.097,123.735 282.43,124.235 282.5,125C 281.866,128.078 280.866,130.911 279.5,133.5C 279.311,129.963 279.977,126.63 281.5,123.5 Z"/></g>
<g><path style="opacity:0.004" fill="#00fffe" d="M 151.5,135.5 C 154.959,136.646 158.459,137.646 162,138.5C 163.658,138.325 164.991,137.658 166,136.5C 167.388,141.372 167.888,146.372 167.5,151.5C 162.167,151.5 156.833,151.5 151.5,151.5C 151.5,146.167 151.5,140.833 151.5,135.5 Z"/></g>
<g><path style="opacity:0.004" fill="#54b6ff" d="M 112.5,137.5 C 114.657,138.053 114.49,139.053 112,140.5C 111.53,139.423 111.697,138.423 112.5,137.5 Z"/></g>
<g><path style="opacity:0.004" fill="#579aff" d="M 396.5,138.5 C 398.496,137.312 399.329,137.979 399,140.5C 398.292,139.619 397.458,138.953 396.5,138.5 Z"/></g>
<g><path style="opacity:0.004" fill="#00fffe" d="M 343.5,139.5 C 348.088,143.01 352.922,143.343 358,140.5C 359.337,144.026 359.837,147.692 359.5,151.5C 354.167,151.5 348.833,151.5 343.5,151.5C 343.5,147.5 343.5,143.5 343.5,139.5 Z"/></g>
<g><path style="opacity:0.004" fill="#53baff" d="M 118.5,146.5 C 119.451,147.919 119.784,149.585 119.5,151.5C 117.801,151.66 116.134,151.494 114.5,151C 116.041,149.629 117.375,148.129 118.5,146.5 Z"/></g>
<g><path style="opacity:0.004" fill="#3ae7ff" d="M 210.5,146.5 C 211.653,152.653 211.82,158.986 211,165.5C 210.5,166 210,166.5 209.5,167C 207.62,166.49 205.787,166.657 204,167.5C 203.688,161.801 203.188,156.134 202.5,150.5C 206.019,150.741 208.685,149.407 210.5,146.5 Z"/></g>
<g><path style="opacity:0.004" fill="#30e7f7" d="M 299.5,146.5 C 307.317,151.333 309.651,158.333 306.5,167.5C 304.5,166.833 302.5,166.167 300.5,165.5C 299.105,159.128 298.772,152.794 299.5,146.5 Z"/></g>
<g><path style="opacity:0.004" fill="#53baff" d="M 391.5,146.5 C 393.296,147.793 394.963,149.293 396.5,151C 394.866,151.494 393.199,151.66 391.5,151.5C 391.5,149.833 391.5,148.167 391.5,146.5 Z"/></g>
<g><path style="opacity:0.004" fill="#0000ff" d="M 307.5,150.5 C 308.525,150.897 308.692,151.563 308,152.5C 307.536,151.906 307.369,151.239 307.5,150.5 Z"/></g>
<g><path style="opacity:0.004" fill="#17e4e7" d="M 68.5,151.5 C 69.1667,151.5 69.8333,151.5 70.5,151.5C 69.2762,157.015 69.9429,162.349 72.5,167.5C 70.5,167.5 68.5,167.5 66.5,167.5C 66.4326,166.041 66.7659,164.708 67.5,163.5C 68.4834,159.702 68.8168,155.702 68.5,151.5 Z"/></g>
<g><path style="opacity:0.004" fill="#20f2fa" d="M 443.5,163.5 C 443.033,166.297 441.367,167.631 438.5,167.5C 440.285,163.027 441.452,158.361 442,153.5C 442.179,157.025 442.679,160.359 443.5,163.5 Z"/></g>
<g><path style="opacity:0.024" fill="#2f84e6" d="M 68.5,151.5 C 68.8168,155.702 68.4834,159.702 67.5,163.5C 65.8138,159.467 64.1471,155.467 62.5,151.5C 62.5,150.833 62.8333,150.5 63.5,150.5C 65.2592,149.739 66.9259,150.072 68.5,151.5 Z"/></g>
<g><path style="opacity:0.055" fill="#2aacd9" d="M 446.5,155.5 C 446.379,158.105 445.379,160.105 443.5,161.5C 443.555,158.902 443.889,156.236 444.5,153.5C 444.833,153.167 445.167,152.833 445.5,152.5C 446.386,153.325 446.719,154.325 446.5,155.5 Z"/></g>
<g><path style="opacity:0.004" fill="#1d3ffc" d="M 457.5,162.5 C 457.833,162.5 458.167,162.5 458.5,162.5C 458.688,164.103 458.188,165.437 457,166.5C 456.421,165.072 456.588,163.738 457.5,162.5 Z"/></g>
<g><path style="opacity:0.008" fill="#388cf4" d="M 462.5,173.5 C 461.652,172.375 460.652,172.375 459.5,173.5C 459.217,172.711 458.717,172.044 458,171.5C 457.768,172.737 457.268,173.737 456.5,174.5C 456.461,173.417 456.127,172.417 455.5,171.5C 457.833,169.833 459.833,167.833 461.5,165.5C 463.024,166.527 463.691,168.027 463.5,170C 463.486,171.385 463.152,172.551 462.5,173.5 Z"/></g>
<g><path style="opacity:0.004" fill="#34ecff" d="M 434.5,191.5 C 434.604,189.297 435.27,187.297 436.5,185.5C 438.625,182.912 439.958,179.912 440.5,176.5C 444.007,175.886 447.34,175.052 450.5,174C 446.136,179.016 444.136,184.683 444.5,191C 441.183,191.498 437.85,191.665 434.5,191.5 Z"/></g>
<g><path style="opacity:0.008" fill="#007eff" d="M 459.5,173.5 C 459.5,173.833 459.5,174.167 459.5,174.5C 458.83,174.019 458.83,173.685 459.5,173.5 Z"/></g>
<g><path style="opacity:0.004" fill="#0000ff" d="M 462.5,173.5 C 462.5,173.833 462.5,174.167 462.5,174.5C 461.83,174.019 461.83,173.685 462.5,173.5 Z"/></g>
<g><path style="opacity:0.004" fill="#00fffe" d="M 456.5,174.5 C 455.833,175.167 455.833,175.167 456.5,174.5 Z"/></g>
<g><path style="opacity:0.004" fill="#0000ff" d="M 459.5,174.5 C 460.833,175.167 460.833,175.167 459.5,174.5 Z"/></g>
<g><path style="opacity:0.008" fill="#007eff" d="M 462.5,174.5 C 463.833,175.167 463.833,175.167 462.5,174.5 Z"/></g>
<g><path style="opacity:0.004" fill="#04fdff" d="M 172.5,175.5 C 172.392,177.783 171.559,179.783 170,181.5C 165.317,184.697 160.817,188.03 156.5,191.5C 149.5,191.5 142.5,191.5 135.5,191.5C 135.5,186.167 135.5,180.833 135.5,175.5C 147.833,175.5 160.167,175.5 172.5,175.5 Z"/></g>
<g><path style="opacity:0.004" fill="#45d3fa" d="M 381.5,176.5 C 384.64,175.359 387.973,175.192 391.5,176C 388.198,178.965 386.198,182.632 385.5,187C 385.645,188.226 385.978,189.393 386.5,190.5C 383.894,191.652 381.227,191.818 378.5,191C 383.749,187 384.749,182.166 381.5,176.5 Z"/></g>
<g><path style="opacity:0.004" fill="#4876c6" d="M 436.5,175.5 C 438.973,175.947 439.14,176.947 437,178.5C 436.517,177.552 436.351,176.552 436.5,175.5 Z"/></g>
<g><path style="opacity:0.063" fill="#2f77d6" d="M 197.5,175.5 C 199.97,176.36 200.137,177.694 198,179.5C 197.51,178.207 197.343,176.873 197.5,175.5 Z"/></g>
<g><path style="opacity:0.004" fill="#2fe5f8" d="M 221.5,177.5 C 222.497,177.47 223.164,177.97 223.5,179C 221.32,185.18 217.154,189.346 211,191.5C 211.168,188.328 212.168,185.328 214,182.5C 216.479,180.686 218.979,179.019 221.5,177.5 Z"/></g>
<g><path style="opacity:0.008" fill="#0000a7" d="M 435.5,179.5 C 436.525,179.897 436.692,180.563 436,181.5C 435.536,180.906 435.369,180.239 435.5,179.5 Z"/></g>
<g><path style="opacity:0.004" fill="#4c95d9" d="M 446.5,183.5 C 447.5,183.5 448.5,183.5 449.5,183.5C 449.756,185.912 448.756,187.579 446.5,188.5C 445.948,186.997 445.948,185.331 446.5,183.5 Z"/></g>
<g><path style="opacity:0.004" fill="#0000ff" d="M 454.5,184.5 C 455.713,185.497 455.546,186.497 454,187.5C 453.53,186.423 453.697,185.423 454.5,184.5 Z"/></g>
<g><path style="opacity:0.024" fill="#2d86eb" d="M 436.5,185.5 C 435.27,187.297 434.604,189.297 434.5,191.5C 428.175,191.996 427.841,190.829 433.5,188C 433.167,187.667 432.833,187.333 432.5,187C 434.333,186.5 435.5,185.333 436,183.5C 436.464,184.094 436.631,184.761 436.5,185.5 Z"/></g>
<g><path style="opacity:0.004" fill="#240fa2" d="M 446.5,191.5 C 446.897,190.475 447.563,190.308 448.5,191C 447.906,191.464 447.239,191.631 446.5,191.5 Z"/></g>
</svg>
