<?xml version="1.0" encoding="UTF-8"?>
<!DOCTYPE svg PUBLIC "-//W3C//DTD SVG 1.1//EN" "http://www.w3.org/Graphics/SVG/1.1/DTD/svg11.dtd">
<svg xmlns="http://www.w3.org/2000/svg" version="1.1" width="512px" height="512px" style="shape-rendering:geometricPrecision; text-rendering:geometricPrecision; image-rendering:optimizeQuality; fill-rule:evenodd; clip-rule:evenodd" xmlns:xlink="http://www.w3.org/1999/xlink">
<g><path style="opacity:0.996" fill="#c8414b" d="M 97.5,-0.5 C 202.833,-0.5 308.167,-0.5 413.5,-0.5C 468.5,9.83333 501.167,42.5 511.5,97.5C 511.5,100.5 511.5,103.5 511.5,106.5C 340.833,106.5 170.167,106.5 -0.5,106.5C -0.5,103.5 -0.5,100.5 -0.5,97.5C 9.83333,42.5 42.5,9.83333 97.5,-0.5 Z"/></g>
<g><path style="opacity:1" fill="#fed150" d="M -0.5,106.5 C 170.167,106.5 340.833,106.5 511.5,106.5C 511.5,205.833 511.5,305.167 511.5,404.5C 340.833,404.5 170.167,404.5 -0.5,404.5C -0.5,305.167 -0.5,205.833 -0.5,106.5 Z"/></g>
<g><path style="opacity:1" fill="#fbbc4e" d="M 154.5,181.5 C 154.335,185.182 154.501,188.848 155,192.5C 158.825,188.244 161.991,188.744 164.5,194C 164.257,194.902 163.923,195.735 163.5,196.5C 154.3,194.174 144.967,193.841 135.5,195.5C 135.943,189.339 138.777,188.005 144,191.5C 144.498,188.183 144.665,184.85 144.5,181.5C 144.5,179.833 144.5,178.167 144.5,176.5C 147.833,176.5 151.167,176.5 154.5,176.5C 154.5,178.167 154.5,179.833 154.5,181.5 Z"/></g>
<g><path style="opacity:1" fill="#f5f3ef" d="M 144.5,181.5 C 144.665,184.85 144.498,188.183 144,191.5C 138.777,188.005 135.943,189.339 135.5,195.5C 132.021,197.403 128.354,199.07 124.5,200.5C 122.037,198.059 119.371,197.893 116.5,200C 115.395,202.12 115.395,204.287 116.5,206.5C 114.167,208.167 112.167,210.167 110.5,212.5C 102.523,202.599 104.523,195.099 116.5,190C 119.868,189.457 123.201,189.624 126.5,190.5C 127.485,186.67 129.819,183.837 133.5,182C 137.152,181.501 140.818,181.335 144.5,181.5 Z"/></g>
<g><path style="opacity:1" fill="#f5f3ef" d="M 154.5,181.5 C 163.264,179.802 169.764,182.802 174,190.5C 180.616,188.627 186.283,190.294 191,195.5C 194.864,201.957 194.03,207.624 188.5,212.5C 186.5,210.167 184.5,207.833 182.5,205.5C 184.53,201.469 183.197,199.136 178.5,198.5C 176.962,198.453 175.962,199.12 175.5,200.5C 171.51,199.174 167.51,197.84 163.5,196.5C 163.923,195.735 164.257,194.902 164.5,194C 161.991,188.744 158.825,188.244 155,192.5C 154.501,188.848 154.335,185.182 154.5,181.5 Z"/></g>
<g><path style="opacity:1" fill="#c8444b" d="M 163.5,196.5 C 167.51,197.84 171.51,199.174 175.5,200.5C 177.296,202.9 179.63,204.567 182.5,205.5C 184.5,207.833 186.5,210.167 188.5,212.5C 184.878,214.787 181.545,217.453 178.5,220.5C 159.167,220.5 139.833,220.5 120.5,220.5C 117.455,217.453 114.122,214.787 110.5,212.5C 112.167,210.167 114.167,208.167 116.5,206.5C 119.205,204.488 121.872,202.488 124.5,200.5C 128.354,199.07 132.021,197.403 135.5,195.5C 144.967,193.841 154.3,194.174 163.5,196.5 Z"/></g>
<g><path style="opacity:1" fill="#fcce5a" d="M 124.5,200.5 C 121.872,202.488 119.205,204.488 116.5,206.5C 115.395,204.287 115.395,202.12 116.5,200C 119.371,197.893 122.037,198.059 124.5,200.5 Z"/></g>
<g><path style="opacity:1" fill="#fdd059" d="M 182.5,205.5 C 179.63,204.567 177.296,202.9 175.5,200.5C 175.962,199.12 176.962,198.453 178.5,198.5C 183.197,199.136 184.53,201.469 182.5,205.5 Z"/></g>
<g><path style="opacity:1" fill="#fcca4f" d="M 127.5,207.5 C 133.487,206.977 135.487,209.477 133.5,215C 129.301,217.401 126.634,216.234 125.5,211.5C 125.752,209.927 126.418,208.594 127.5,207.5 Z"/></g>
<g><path style="opacity:1" fill="#fbc74f" d="M 147.5,207.5 C 154.913,207.699 156.246,210.532 151.5,216C 147.15,216.645 144.983,214.812 145,210.5C 145.698,209.309 146.531,208.309 147.5,207.5 Z"/></g>
<g><path style="opacity:1" fill="#fcca4f" d="M 166.5,207.5 C 172.487,206.977 174.487,209.477 172.5,215C 164.786,217.118 162.786,214.618 166.5,207.5 Z"/></g>
<g><path style="opacity:1" fill="#c8434b" d="M 83.5,229.5 C 78.737,229.774 74.0704,229.441 69.5,228.5C 66.5076,217.003 70.8409,213.17 82.5,217C 83,217.5 83.5,218 84,218.5C 84.2792,222.17 84.1125,225.837 83.5,229.5 Z"/></g>
<g><path style="opacity:1" fill="#c9444b" d="M 229.5,229.5 C 224.737,229.774 220.07,229.441 215.5,228.5C 212.508,217.003 216.841,213.17 228.5,217C 229,217.5 229.5,218 230,218.5C 230.579,222.203 230.412,225.869 229.5,229.5 Z"/></g>
<g><path style="opacity:1" fill="#f9b346" d="M 120.5,220.5 C 139.833,220.5 159.167,220.5 178.5,220.5C 178.5,223.5 178.5,226.5 178.5,229.5C 168.833,229.5 159.167,229.5 149.5,229.5C 139.833,229.5 130.167,229.5 120.5,229.5C 120.5,226.5 120.5,223.5 120.5,220.5 Z"/></g>
<g><path style="opacity:1" fill="#f9b447" d="M 69.5,228.5 C 74.0704,229.441 78.737,229.774 83.5,229.5C 86.1667,229.5 88.8333,229.5 91.5,229.5C 91.5,232.5 91.5,235.5 91.5,238.5C 89.8333,238.5 88.1667,238.5 86.5,238.5C 79.8333,238.5 73.1667,238.5 66.5,238.5C 64.8333,238.5 63.1667,238.5 61.5,238.5C 61.5,235.5 61.5,232.5 61.5,229.5C 64.3854,229.806 67.0521,229.473 69.5,228.5 Z"/></g>
<g><path style="opacity:1" fill="#c9454c" d="M 120.5,229.5 C 130.167,229.5 139.833,229.5 149.5,229.5C 149.5,239.833 149.5,250.167 149.5,260.5C 146.308,260.405 143.308,261.071 140.5,262.5C 140.5,260.167 140.5,257.833 140.5,255.5C 138.833,255.5 137.167,255.5 135.5,255.5C 135.5,252.833 135.5,250.167 135.5,247.5C 137.167,247.5 138.833,247.5 140.5,247.5C 140.81,244.287 140.477,241.287 139.5,238.5C 129.833,238.5 120.167,238.5 110.5,238.5C 110.5,241.5 110.5,244.5 110.5,247.5C 112.167,247.5 113.833,247.5 115.5,247.5C 115.5,250.167 115.5,252.833 115.5,255.5C 113.833,255.5 112.167,255.5 110.5,255.5C 110.5,258.5 110.5,261.5 110.5,264.5C 119.833,264.5 129.167,264.5 138.5,264.5C 134.26,271.091 134.593,277.425 139.5,283.5C 139.5,293.5 139.5,303.5 139.5,313.5C 137.046,315.06 134.38,316.06 131.5,316.5C 130.833,302.167 130.167,287.833 129.5,273.5C 126.5,273.5 123.5,273.5 120.5,273.5C 120.5,288.167 120.5,302.833 120.5,317.5C 117.426,316.698 114.426,315.698 111.5,314.5C 111.167,313.833 110.833,313.167 110.5,312.5C 110.5,299.5 110.5,286.5 110.5,273.5C 107.167,273.5 103.833,273.5 100.5,273.5C 100.5,270.5 100.5,267.5 100.5,264.5C 95.8333,264.5 91.1667,264.5 86.5,264.5C 79.8333,264.5 73.1667,264.5 66.5,264.5C 64.8333,264.5 63.1667,264.5 61.5,264.5C 61.5,261.5 61.5,258.5 61.5,255.5C 63.1667,255.5 64.8333,255.5 66.5,255.5C 73.1667,255.5 79.8333,255.5 86.5,255.5C 91.1667,255.5 95.8333,255.5 100.5,255.5C 100.334,249.158 100.5,242.825 101,236.5C 101.786,233.417 103.619,231.251 106.5,230C 111.155,229.501 115.821,229.334 120.5,229.5 Z"/></g>
<g><path style="opacity:1" fill="#f4f3f3" d="M 149.5,229.5 C 159.167,229.5 168.833,229.5 178.5,229.5C 183.179,229.334 187.845,229.501 192.5,230C 195,231.167 196.833,233 198,235.5C 198.5,242.158 198.666,248.825 198.5,255.5C 198.5,258.5 198.5,261.5 198.5,264.5C 198.5,267.5 198.5,270.5 198.5,273.5C 187.167,273.5 175.833,273.5 164.5,273.5C 162.992,265.335 157.992,261.002 149.5,260.5C 149.5,250.167 149.5,239.833 149.5,229.5 Z"/></g>
<g><path style="opacity:1" fill="#f9b447" d="M 215.5,228.5 C 220.07,229.441 224.737,229.774 229.5,229.5C 232.167,229.5 234.833,229.5 237.5,229.5C 237.5,232.5 237.5,235.5 237.5,238.5C 235.833,238.5 234.167,238.5 232.5,238.5C 225.833,238.5 219.167,238.5 212.5,238.5C 210.833,238.5 209.167,238.5 207.5,238.5C 207.5,235.5 207.5,232.5 207.5,229.5C 210.385,229.806 213.052,229.473 215.5,228.5 Z"/></g>
<g><path style="opacity:1" fill="#f5f4f0" d="M 66.5,238.5 C 73.1667,238.5 79.8333,238.5 86.5,238.5C 86.5,244.167 86.5,249.833 86.5,255.5C 79.8333,255.5 73.1667,255.5 66.5,255.5C 66.5,249.833 66.5,244.167 66.5,238.5 Z"/></g>
<g><path style="opacity:1" fill="#fab245" d="M 139.5,238.5 C 139.5,241.167 139.5,243.833 139.5,246.5C 137.833,246.5 136.167,246.5 134.5,246.5C 134.5,249.833 134.5,253.167 134.5,256.5C 136.167,256.5 137.833,256.5 139.5,256.5C 139.5,258.833 139.5,261.167 139.5,263.5C 139.5,264.167 139.167,264.5 138.5,264.5C 129.167,264.5 119.833,264.5 110.5,264.5C 110.5,261.5 110.5,258.5 110.5,255.5C 112.167,255.5 113.833,255.5 115.5,255.5C 115.5,252.833 115.5,250.167 115.5,247.5C 113.833,247.5 112.167,247.5 110.5,247.5C 110.5,244.5 110.5,241.5 110.5,238.5C 120.167,238.5 129.833,238.5 139.5,238.5 Z"/></g>
<g><path style="opacity:1" fill="#fea1d2" d="M 169.5,238.5 C 182.474,238.351 186.974,244.684 183,257.5C 180.792,264.11 176.292,266.276 169.5,264C 167.667,262.833 166.167,261.333 165,259.5C 164.333,254.167 164.333,248.833 165,243.5C 166.366,241.638 167.866,239.972 169.5,238.5 Z"/></g>
<g><path style="opacity:1" fill="#f5f4f0" d="M 212.5,238.5 C 219.167,238.5 225.833,238.5 232.5,238.5C 232.5,244.167 232.5,249.833 232.5,255.5C 225.833,255.5 219.167,255.5 212.5,255.5C 212.5,249.833 212.5,244.167 212.5,238.5 Z"/></g>
<g><path style="opacity:1" fill="#df7548" d="M 139.5,238.5 C 140.477,241.287 140.81,244.287 140.5,247.5C 138.833,247.5 137.167,247.5 135.5,247.5C 135.5,250.167 135.5,252.833 135.5,255.5C 137.167,255.5 138.833,255.5 140.5,255.5C 140.5,257.833 140.5,260.167 140.5,262.5C 140.5,263.167 140.167,263.5 139.5,263.5C 139.5,261.167 139.5,258.833 139.5,256.5C 137.833,256.5 136.167,256.5 134.5,256.5C 134.5,253.167 134.5,249.833 134.5,246.5C 136.167,246.5 137.833,246.5 139.5,246.5C 139.5,243.833 139.5,241.167 139.5,238.5 Z"/></g>
<g><path style="opacity:1" fill="#ca4a4e" d="M 198.5,255.5 C 203.167,255.5 207.833,255.5 212.5,255.5C 219.167,255.5 225.833,255.5 232.5,255.5C 234.167,255.5 235.833,255.5 237.5,255.5C 237.5,258.5 237.5,261.5 237.5,264.5C 235.833,264.5 234.167,264.5 232.5,264.5C 225.833,264.5 219.167,264.5 212.5,264.5C 207.833,264.5 203.167,264.5 198.5,264.5C 198.5,261.5 198.5,258.5 198.5,255.5 Z"/></g>
<g><path style="opacity:1" fill="#5264a8" d="M 149.5,260.5 C 157.992,261.002 162.992,265.335 164.5,273.5C 163.977,276.878 162.644,279.878 160.5,282.5C 159.833,282.5 159.5,282.833 159.5,283.5C 156.528,285.65 153.195,286.65 149.5,286.5C 145.805,286.65 142.472,285.65 139.5,283.5C 134.593,277.425 134.26,271.091 138.5,264.5C 139.167,264.5 139.5,264.167 139.5,263.5C 140.167,263.5 140.5,263.167 140.5,262.5C 143.308,261.071 146.308,260.405 149.5,260.5 Z"/></g>
<g><path style="opacity:1" fill="#f4f0ed" d="M 66.5,264.5 C 73.1667,264.5 79.8333,264.5 86.5,264.5C 86.5,267.833 86.5,271.167 86.5,274.5C 80.0239,276.79 73.3573,278.79 66.5,280.5C 66.5,275.167 66.5,269.833 66.5,264.5 Z"/></g>
<g><path style="opacity:1" fill="#f4eeec" d="M 212.5,264.5 C 219.167,264.5 225.833,264.5 232.5,264.5C 232.5,269.833 232.5,275.167 232.5,280.5C 225.557,279.102 218.891,277.102 212.5,274.5C 212.5,271.167 212.5,267.833 212.5,264.5 Z"/></g>
<g><path style="opacity:1" fill="#ca4a4d" d="M 86.5,283.5 C 79.3569,285.659 72.3569,287.992 65.5,290.5C 64.4168,290.539 63.4168,290.873 62.5,291.5C 61.3452,288.554 61.1786,285.554 62,282.5C 63.6225,281.901 65.1225,281.234 66.5,280.5C 73.3573,278.79 80.0239,276.79 86.5,274.5C 87.9305,274.579 89.2638,274.246 90.5,273.5C 91.4841,276.428 91.8174,279.428 91.5,282.5C 89.7839,282.629 88.1172,282.962 86.5,283.5 Z"/></g>
<g><path style="opacity:1" fill="#fab549" d="M 100.5,273.5 C 103.833,273.5 107.167,273.5 110.5,273.5C 110.5,286.5 110.5,299.5 110.5,312.5C 105.614,309.079 102.447,304.412 101,298.5C 100.5,290.173 100.334,281.84 100.5,273.5 Z"/></g>
<g><path style="opacity:1" fill="#f9b446" d="M 129.5,273.5 C 129.5,288.167 129.5,302.833 129.5,317.5C 126.5,317.5 123.5,317.5 120.5,317.5C 120.5,302.833 120.5,288.167 120.5,273.5C 123.5,273.5 126.5,273.5 129.5,273.5 Z"/></g>
<g><path style="opacity:1" fill="#e68649" d="M 129.5,273.5 C 130.167,287.833 130.833,302.167 131.5,316.5C 131.158,317.338 130.492,317.672 129.5,317.5C 129.5,302.833 129.5,288.167 129.5,273.5 Z"/></g>
<g><path style="opacity:1" fill="#c9454d" d="M 164.5,273.5 C 175.833,273.5 187.167,273.5 198.5,273.5C 198.666,282.173 198.5,290.84 198,299.5C 196.503,304.477 194.003,308.81 190.5,312.5C 171.948,322.759 158.282,318.425 149.5,299.5C 149.5,295.167 149.5,290.833 149.5,286.5C 153.195,286.65 156.528,285.65 159.5,283.5C 159.334,288.844 159.501,294.177 160,299.5C 164.759,308.419 171.926,310.919 181.5,307C 184,305.833 185.833,304 187,301.5C 188.416,295.285 188.916,288.952 188.5,282.5C 179.167,282.5 169.833,282.5 160.5,282.5C 162.644,279.878 163.977,276.878 164.5,273.5 Z"/></g>
<g><path style="opacity:1" fill="#cb4b4e" d="M 212.5,274.5 C 218.891,277.102 225.557,279.102 232.5,280.5C 233.641,281.339 234.974,282.006 236.5,282.5C 237.833,285.5 237.833,288.5 236.5,291.5C 235.264,290.754 233.93,290.421 232.5,290.5C 226.101,287.926 219.435,285.926 212.5,284.5C 211.359,283.661 210.026,282.994 208.5,282.5C 207.516,279.572 207.183,276.572 207.5,273.5C 209.216,273.629 210.883,273.962 212.5,274.5 Z"/></g>
<g><path style="opacity:1" fill="#f8b146" d="M 160.5,282.5 C 169.833,282.5 179.167,282.5 188.5,282.5C 188.916,288.952 188.416,295.285 187,301.5C 185.833,304 184,305.833 181.5,307C 171.926,310.919 164.759,308.419 160,299.5C 159.501,294.177 159.334,288.844 159.5,283.5C 159.5,282.833 159.833,282.5 160.5,282.5 Z"/></g>
<g><path style="opacity:1" fill="#f5f2ee" d="M 86.5,283.5 C 86.5,291.833 86.5,300.167 86.5,308.5C 79.8333,308.5 73.1667,308.5 66.5,308.5C 66.8229,302.31 66.4896,296.31 65.5,290.5C 72.3569,287.992 79.3569,285.659 86.5,283.5 Z"/></g>
<g><path style="opacity:1" fill="#f5f3f0" d="M 212.5,284.5 C 219.435,285.926 226.101,287.926 232.5,290.5C 232.5,296.5 232.5,302.5 232.5,308.5C 225.833,308.5 219.167,308.5 212.5,308.5C 212.5,300.5 212.5,292.5 212.5,284.5 Z"/></g>
<g><path style="opacity:1" fill="#f7af49" d="M 139.5,283.5 C 142.472,285.65 145.805,286.65 149.5,286.5C 149.5,290.833 149.5,295.167 149.5,299.5C 147.651,305.188 144.317,309.855 139.5,313.5C 139.5,303.5 139.5,293.5 139.5,283.5 Z"/></g>
<g><path style="opacity:1" fill="#c8424a" d="M 169.5,291.5 C 172.5,291.5 175.5,291.5 178.5,291.5C 179.352,298.488 176.519,300.822 170,298.5C 169.503,296.19 169.337,293.857 169.5,291.5 Z"/></g>
<g><path style="opacity:1" fill="#f5f2f0" d="M 149.5,299.5 C 158.282,318.425 171.948,322.759 190.5,312.5C 185.781,317.357 180.114,320.857 173.5,323C 153.941,328.786 134.941,327.453 116.5,319C 114.382,317.951 112.716,316.451 111.5,314.5C 114.426,315.698 117.426,316.698 120.5,317.5C 123.5,317.5 126.5,317.5 129.5,317.5C 130.492,317.672 131.158,317.338 131.5,316.5C 134.38,316.06 137.046,315.06 139.5,313.5C 144.317,309.855 147.651,305.188 149.5,299.5 Z"/></g>
<g><path style="opacity:1" fill="#fab64a" d="M 66.5,308.5 C 73.1667,308.5 79.8333,308.5 86.5,308.5C 88.1667,308.5 89.8333,308.5 91.5,308.5C 91.5,311.5 91.5,314.5 91.5,317.5C 81.5,317.5 71.5,317.5 61.5,317.5C 61.5,314.5 61.5,311.5 61.5,308.5C 63.1667,308.5 64.8333,308.5 66.5,308.5 Z"/></g>
<g><path style="opacity:1" fill="#fab649" d="M 212.5,308.5 C 219.167,308.5 225.833,308.5 232.5,308.5C 235.833,308.5 239.167,308.5 242.5,308.5C 242.5,311.5 242.5,314.5 242.5,317.5C 232.5,317.5 222.5,317.5 212.5,317.5C 212.5,314.5 212.5,311.5 212.5,308.5 Z"/></g>
<g><path style="opacity:1" fill="#787b95" d="M 203.5,318.5 C 206.287,317.523 209.287,317.19 212.5,317.5C 222.5,317.5 232.5,317.5 242.5,317.5C 242.81,320.713 242.477,323.713 241.5,326.5C 241.5,323.833 241.5,321.167 241.5,318.5C 228.833,318.5 216.167,318.5 203.5,318.5 Z"/></g>
<g><path style="opacity:1" fill="#5365a8" d="M 61.5,317.5 C 71.5,317.5 81.5,317.5 91.5,317.5C 92.8333,317.5 94.1667,317.5 95.5,317.5C 95.5,320.5 95.5,323.5 95.5,326.5C 82.8333,326.5 70.1667,326.5 57.5,326.5C 57.5,323.5 57.5,320.5 57.5,317.5C 58.8333,317.5 60.1667,317.5 61.5,317.5 Z"/></g>
<g><path style="opacity:1" fill="#5064aa" d="M 203.5,318.5 C 216.167,318.5 228.833,318.5 241.5,318.5C 241.5,321.167 241.5,323.833 241.5,326.5C 228.833,326.5 216.167,326.5 203.5,326.5C 203.5,323.833 203.5,321.167 203.5,318.5 Z"/></g>
<g><path style="opacity:0.996" fill="#c8414b" d="M -0.5,404.5 C 170.167,404.5 340.833,404.5 511.5,404.5C 511.5,407.5 511.5,410.5 511.5,413.5C 501.167,468.5 468.5,501.167 413.5,511.5C 308.167,511.5 202.833,511.5 97.5,511.5C 42.5,501.167 9.83333,468.5 -0.5,413.5C -0.5,410.5 -0.5,407.5 -0.5,404.5 Z"/></g>
</svg>
