<?xml version="1.0" encoding="UTF-8"?>
<!DOCTYPE svg PUBLIC "-//W3C//DTD SVG 1.1//EN" "http://www.w3.org/Graphics/SVG/1.1/DTD/svg11.dtd">
<svg xmlns="http://www.w3.org/2000/svg" version="1.1" width="512px" height="512px" style="shape-rendering:geometricPrecision; text-rendering:geometricPrecision; image-rendering:optimizeQuality; fill-rule:evenodd; clip-rule:evenodd" xmlns:xlink="http://www.w3.org/1999/xlink">
<g><path style="opacity:0.997" fill="#73af01" d="M 97.5,-0.5 C 121.833,-0.5 146.167,-0.5 170.5,-0.5C 170.5,170.167 170.5,340.833 170.5,511.5C 146.167,511.5 121.833,511.5 97.5,511.5C 42.5,501.167 9.83333,468.5 -0.5,413.5C -0.5,308.167 -0.5,202.833 -0.5,97.5C 9.83333,42.5 42.5,9.83333 97.5,-0.5 Z"/></g>
<g><path style="opacity:1" fill="#f4f4f4" d="M 170.5,-0.5 C 227.167,-0.5 283.833,-0.5 340.5,-0.5C 340.5,170.167 340.5,340.833 340.5,511.5C 283.833,511.5 227.167,511.5 170.5,511.5C 170.5,340.833 170.5,170.167 170.5,-0.5 Z"/></g>
<g><path style="opacity:0.997" fill="#fe4b55" d="M 340.5,-0.5 C 364.833,-0.5 389.167,-0.5 413.5,-0.5C 468.5,9.83333 501.167,42.5 511.5,97.5C 511.5,202.833 511.5,308.167 511.5,413.5C 501.167,468.5 468.5,501.167 413.5,511.5C 389.167,511.5 364.833,511.5 340.5,511.5C 340.5,340.833 340.5,170.167 340.5,-0.5 Z"/></g>
<g><path style="opacity:1" fill="#884251" d="M 258.5,204.5 C 271.957,203.72 280.791,210.053 285,223.5C 286.538,230.967 286.705,238.3 285.5,245.5C 279.325,241.912 272.991,238.578 266.5,235.5C 265.55,231.647 264.217,227.98 262.5,224.5C 263.222,224.082 263.722,223.416 264,222.5C 265.982,215.172 264.149,209.172 258.5,204.5 Z"/></g>
<g><path style="opacity:1" fill="#9c4d5c" d="M 297.5,261.5 C 296.5,260.833 295.5,260.167 294.5,259.5C 290.712,255.371 287.712,250.704 285.5,245.5C 286.705,238.3 286.538,230.967 285,223.5C 280.791,210.053 271.957,203.72 258.5,204.5C 257.711,204.217 257.044,203.717 256.5,203C 279.051,201.022 293.551,210.855 300,232.5C 302.742,242.765 303.076,253.099 301,263.5C 299.887,262.695 298.721,262.028 297.5,261.5 Z"/></g>
<g><path style="opacity:1" fill="#acd369" d="M 232.5,220.5 C 232.34,222.199 232.506,223.866 233,225.5C 234.78,224.361 236.614,223.361 238.5,222.5C 241.143,225.34 241.976,228.673 241,232.5C 238.203,236.962 235.036,241.128 231.5,245C 234.473,247.491 237.806,249.491 241.5,251C 242.305,252.113 242.972,253.279 243.5,254.5C 243.721,257.279 243.388,259.946 242.5,262.5C 239.726,266.868 235.726,268.535 230.5,267.5C 224.843,266.504 219.843,264.171 215.5,260.5C 210.882,254.322 208.215,247.322 207.5,239.5C 210.119,239.232 212.619,239.565 215,240.5C 216.081,248.851 220.248,255.017 227.5,259C 230.167,259.667 232.833,259.667 235.5,259C 236.711,258.107 236.711,257.274 235.5,256.5C 229.013,255.118 225.013,251.284 223.5,245C 223.909,242.679 224.743,240.513 226,238.5C 228.885,235.952 231.385,233.118 233.5,230C 230.007,228.284 226.507,226.451 223,224.5C 220.238,218.6 221.238,213.6 226,209.5C 228.821,212.429 229.821,215.762 229,219.5C 230.011,220.337 231.178,220.67 232.5,220.5 Z"/></g>
<g><path style="opacity:1" fill="#793d46" d="M 241.5,210.5 C 251.284,210.898 258.284,215.565 262.5,224.5C 264.217,227.98 265.55,231.647 266.5,235.5C 268.255,240.574 269.921,245.574 271.5,250.5C 270.206,254.733 270.206,259.066 271.5,263.5C 270.686,265.631 270.186,267.964 270,270.5C 269.292,269.619 268.458,268.953 267.5,268.5C 267.167,267.5 266.5,266.833 265.5,266.5C 263.706,264.203 261.706,262.037 259.5,260C 253.745,260.019 248.078,260.852 242.5,262.5C 243.388,259.946 243.721,257.279 243.5,254.5C 245.303,252.519 246.97,250.352 248.5,248C 242.204,240.255 241.87,232.255 247.5,224C 247.481,222.167 246.815,220.667 245.5,219.5C 246.412,218.262 246.579,216.928 246,215.5C 244.293,213.963 242.793,212.296 241.5,210.5 Z"/></g>
<g><path style="opacity:1" fill="#facf52" d="M 241.5,210.5 C 242.793,212.296 244.293,213.963 246,215.5C 246.579,216.928 246.412,218.262 245.5,219.5C 243.046,220.227 240.713,221.227 238.5,222.5C 236.614,223.361 234.78,224.361 233,225.5C 232.506,223.866 232.34,222.199 232.5,220.5C 234.069,215.929 237.069,212.595 241.5,210.5 Z"/></g>
<g><path style="opacity:1" fill="#f1f1ef" d="M 245.5,219.5 C 246.815,220.667 247.481,222.167 247.5,224C 241.87,232.255 242.204,240.255 248.5,248C 246.97,250.352 245.303,252.519 243.5,254.5C 242.972,253.279 242.305,252.113 241.5,251C 237.806,249.491 234.473,247.491 231.5,245C 235.036,241.128 238.203,236.962 241,232.5C 241.976,228.673 241.143,225.34 238.5,222.5C 240.713,221.227 243.046,220.227 245.5,219.5 Z"/></g>
<g><path style="opacity:1" fill="#f1eeef" d="M 266.5,235.5 C 272.991,238.578 279.325,241.912 285.5,245.5C 287.712,250.704 290.712,255.371 294.5,259.5C 292.62,259.229 291.287,259.896 290.5,261.5C 284.33,257.581 277.997,253.914 271.5,250.5C 269.921,245.574 268.255,240.574 266.5,235.5 Z"/></g>
<g><path style="opacity:1" fill="#d7e7bc" d="M 198.5,248.5 C 196.167,248.5 193.833,248.5 191.5,248.5C 191.5,250.833 191.5,253.167 191.5,255.5C 190.527,253.052 190.194,250.385 190.5,247.5C 193.385,247.194 196.052,247.527 198.5,248.5 Z"/></g>
<g><path style="opacity:1" fill="#d7e7bc" d="M 312.5,248.5 C 314.948,247.527 317.615,247.194 320.5,247.5C 320.806,250.385 320.473,253.052 319.5,255.5C 319.5,253.167 319.5,250.833 319.5,248.5C 317.167,248.5 314.833,248.5 312.5,248.5 Z"/></g>
<g><path style="opacity:1" fill="#add369" d="M 198.5,248.5 C 199.058,254.18 199.725,259.847 200.5,265.5C 197.892,265.4 195.558,266.067 193.5,267.5C 192.197,263.618 191.53,259.618 191.5,255.5C 191.5,253.167 191.5,250.833 191.5,248.5C 193.833,248.5 196.167,248.5 198.5,248.5 Z"/></g>
<g><path style="opacity:1" fill="#add36a" d="M 312.5,248.5 C 314.833,248.5 317.167,248.5 319.5,248.5C 319.5,250.833 319.5,253.167 319.5,255.5C 319.313,259.913 318.646,264.246 317.5,268.5C 315.394,265.64 312.728,264.974 309.5,266.5C 311.147,260.62 312.147,254.62 312.5,248.5 Z"/></g>
<g><path style="opacity:1" fill="#733039" d="M 271.5,250.5 C 277.997,253.914 284.33,257.581 290.5,261.5C 293.125,262.441 293.125,263.607 290.5,265C 286.727,266.97 282.894,268.803 279,270.5C 278.098,270.257 277.265,269.923 276.5,269.5C 274.833,267.5 273.167,265.5 271.5,263.5C 270.206,259.066 270.206,254.733 271.5,250.5 Z"/></g>
<g><path style="opacity:1" fill="#f1f2f0" d="M 265.5,266.5 C 262.404,267.547 259.404,268.88 256.5,270.5C 255.571,271.689 255.238,273.022 255.5,274.5C 246.329,274.771 237.996,272.438 230.5,267.5C 235.726,268.535 239.726,266.868 242.5,262.5C 248.078,260.852 253.745,260.019 259.5,260C 261.706,262.037 263.706,264.203 265.5,266.5 Z"/></g>
<g><path style="opacity:1" fill="#1dc4a2" d="M 294.5,259.5 C 295.5,260.167 296.5,260.833 297.5,261.5C 297.657,262.873 297.49,264.207 297,265.5C 286.524,275.498 274.024,281.164 259.5,282.5C 259.5,283.833 259.5,285.167 259.5,286.5C 256.833,286.5 254.167,286.5 251.5,286.5C 251.5,285.167 251.5,283.833 251.5,282.5C 236.93,281.297 224.43,275.63 214,265.5C 213.123,263.326 213.623,261.659 215.5,260.5C 219.843,264.171 224.843,266.504 230.5,267.5C 237.996,272.438 246.329,274.771 255.5,274.5C 258.86,274.384 262.193,274.051 265.5,273.5C 269.431,272.611 273.098,271.278 276.5,269.5C 277.265,269.923 278.098,270.257 279,270.5C 282.894,268.803 286.727,266.97 290.5,265C 293.125,263.607 293.125,262.441 290.5,261.5C 291.287,259.896 292.62,259.229 294.5,259.5 Z"/></g>
<g><path style="opacity:1" fill="#e9e7e5" d="M 271.5,263.5 C 273.167,265.5 274.833,267.5 276.5,269.5C 273.098,271.278 269.431,272.611 265.5,273.5C 266.441,271.95 267.107,270.284 267.5,268.5C 268.458,268.953 269.292,269.619 270,270.5C 270.186,267.964 270.686,265.631 271.5,263.5 Z"/></g>
<g><path style="opacity:1" fill="#fce160" d="M 200.5,265.5 C 203.092,267.036 204.092,269.369 203.5,272.5C 202.313,274.975 200.313,275.975 197.5,275.5C 194.11,274.056 192.777,271.39 193.5,267.5C 195.558,266.067 197.892,265.4 200.5,265.5 Z"/></g>
<g><path style="opacity:1" fill="#fdd254" d="M 265.5,266.5 C 266.5,266.833 267.167,267.5 267.5,268.5C 267.107,270.284 266.441,271.95 265.5,273.5C 262.193,274.051 258.86,274.384 255.5,274.5C 255.238,273.022 255.571,271.689 256.5,270.5C 259.404,268.88 262.404,267.547 265.5,266.5 Z"/></g>
<g><path style="opacity:1" fill="#fce05c" d="M 317.5,268.5 C 318.32,272.222 316.987,274.555 313.5,275.5C 310.642,275.972 308.642,274.972 307.5,272.5C 307.253,270.142 307.919,268.142 309.5,266.5C 312.728,264.974 315.394,265.64 317.5,268.5 Z"/></g>
<g><path style="opacity:1" fill="#aed368" d="M 203.5,272.5 C 205.57,276.3 207.903,279.966 210.5,283.5C 207.833,284.167 206.167,285.833 205.5,288.5C 202.048,284.701 199.382,280.368 197.5,275.5C 200.313,275.975 202.313,274.975 203.5,272.5 Z"/></g>
<g><path style="opacity:1" fill="#afd368" d="M 307.5,272.5 C 308.642,274.972 310.642,275.972 313.5,275.5C 311.957,280.024 309.623,284.024 306.5,287.5C 304.964,284.908 302.631,283.908 299.5,284.5C 302.592,280.749 305.259,276.749 307.5,272.5 Z"/></g>
<g><path style="opacity:1" fill="#fbe05d" d="M 210.5,283.5 C 213.646,284.31 215.313,286.31 215.5,289.5C 214.555,292.987 212.222,294.32 208.5,293.5C 206.273,292.599 205.273,290.933 205.5,288.5C 206.167,285.833 207.833,284.167 210.5,283.5 Z"/></g>
<g><path style="opacity:1" fill="#24aedc" d="M 245.5,289.5 C 244.631,291.717 244.298,294.05 244.5,296.5C 238.507,295.336 233.174,292.836 228.5,289C 229.424,286.627 230.924,284.794 233,283.5C 237.192,285.61 241.358,287.61 245.5,289.5 Z"/></g>
<g><path style="opacity:1" fill="#25aedc" d="M 266.5,296.5 C 266.702,294.05 266.369,291.717 265.5,289.5C 269.515,287.411 273.681,285.411 278,283.5C 280.076,284.794 281.576,286.627 282.5,289C 277.837,292.83 272.504,295.33 266.5,296.5 Z"/></g>
<g><path style="opacity:1" fill="#fde15c" d="M 299.5,284.5 C 302.631,283.908 304.964,284.908 306.5,287.5C 306.981,291.349 305.314,293.349 301.5,293.5C 298.167,293.5 296.5,291.833 296.5,288.5C 296.738,286.596 297.738,285.262 299.5,284.5 Z"/></g>
<g><path style="opacity:1" fill="#feb479" d="M 251.5,286.5 C 254.167,286.5 256.833,286.5 259.5,286.5C 261.947,286.615 263.947,287.615 265.5,289.5C 266.369,291.717 266.702,294.05 266.5,296.5C 264.19,300.907 260.523,302.574 255.5,301.5C 250.477,302.574 246.81,300.907 244.5,296.5C 244.298,294.05 244.631,291.717 245.5,289.5C 247.053,287.615 249.053,286.615 251.5,286.5 Z"/></g>
<g><path style="opacity:1" fill="#aed369" d="M 215.5,289.5 C 219.19,292.199 222.857,294.865 226.5,297.5C 224.15,299.213 223.15,301.547 223.5,304.5C 218.196,301.188 213.196,297.521 208.5,293.5C 212.222,294.32 214.555,292.987 215.5,289.5 Z"/></g>
<g><path style="opacity:1" fill="#afd368" d="M 296.5,288.5 C 296.5,291.833 298.167,293.5 301.5,293.5C 297.432,297.899 292.765,301.565 287.5,304.5C 287.834,301.509 286.834,299.176 284.5,297.5C 288.476,294.531 292.476,291.531 296.5,288.5 Z"/></g>
<g><path style="opacity:1" fill="#fce15f" d="M 226.5,297.5 C 230.002,297.076 232.335,298.41 233.5,301.5C 233.747,303.858 233.081,305.858 231.5,307.5C 228.014,308.171 225.347,307.171 223.5,304.5C 223.15,301.547 224.15,299.213 226.5,297.5 Z"/></g>
<g><path style="opacity:1" fill="#fce05c" d="M 284.5,297.5 C 286.834,299.176 287.834,301.509 287.5,304.5C 285.609,307.172 282.942,308.172 279.5,307.5C 278.637,305.579 277.971,303.579 277.5,301.5C 278.855,298.482 281.188,297.149 284.5,297.5 Z"/></g>
<g><path style="opacity:1" fill="#acd367" d="M 233.5,301.5 C 240.436,303.92 247.603,305.254 255,305.5C 262.69,305.128 270.19,303.795 277.5,301.5C 277.971,303.579 278.637,305.579 279.5,307.5C 277.068,308.958 274.401,310.125 271.5,311C 262.203,312.398 252.87,312.732 243.5,312C 239.048,311.399 235.048,309.899 231.5,307.5C 233.081,305.858 233.747,303.858 233.5,301.5 Z"/></g>
</svg>
