<?xml version="1.0" encoding="UTF-8"?>
<!DOCTYPE svg PUBLIC "-//W3C//DTD SVG 1.1//EN" "http://www.w3.org/Graphics/SVG/1.1/DTD/svg11.dtd">
<svg xmlns="http://www.w3.org/2000/svg" version="1.1" width="512px" height="512px" style="shape-rendering:geometricPrecision; text-rendering:geometricPrecision; image-rendering:optimizeQuality; fill-rule:evenodd; clip-rule:evenodd" xmlns:xlink="http://www.w3.org/1999/xlink">
<g><path style="opacity:0.997" fill="#ff4b55" d="M 97.5,-0.5 C 121.833,-0.5 146.167,-0.5 170.5,-0.5C 170.5,170.167 170.5,340.833 170.5,511.5C 146.167,511.5 121.833,511.5 97.5,511.5C 42.5,501.167 9.83333,468.5 -0.5,413.5C -0.5,308.167 -0.5,202.833 -0.5,97.5C 9.83333,42.5 42.5,9.83333 97.5,-0.5 Z"/></g>
<g><path style="opacity:1" fill="#f4f5f4" d="M 170.5,-0.5 C 227.167,-0.5 283.833,-0.5 340.5,-0.5C 340.5,170.167 340.5,340.833 340.5,511.5C 283.833,511.5 227.167,511.5 170.5,511.5C 170.5,340.833 170.5,170.167 170.5,-0.5 Z"/></g>
<g><path style="opacity:0.997" fill="#fe4b55" d="M 340.5,-0.5 C 364.833,-0.5 389.167,-0.5 413.5,-0.5C 468.5,9.83333 501.167,42.5 511.5,97.5C 511.5,202.833 511.5,308.167 511.5,413.5C 501.167,468.5 468.5,501.167 413.5,511.5C 389.167,511.5 364.833,511.5 340.5,511.5C 340.5,340.833 340.5,170.167 340.5,-0.5 Z"/></g>
</svg>
