<?xml version="1.0" encoding="UTF-8"?>
<!DOCTYPE svg PUBLIC "-//W3C//DTD SVG 1.1//EN" "http://www.w3.org/Graphics/SVG/1.1/DTD/svg11.dtd">
<svg xmlns="http://www.w3.org/2000/svg" version="1.1" width="512px" height="512px" style="shape-rendering:geometricPrecision; text-rendering:geometricPrecision; image-rendering:optimizeQuality; fill-rule:evenodd; clip-rule:evenodd" xmlns:xlink="http://www.w3.org/1999/xlink">
<g><path style="opacity:0.999" fill="#fe4b54" d="M 97.5,-0.5 C 202.833,-0.5 308.167,-0.5 413.5,-0.5C 468.5,9.83333 501.167,42.5 511.5,97.5C 511.5,121.5 511.5,145.5 511.5,169.5C 424.833,169.5 338.167,169.5 251.5,169.5C 241.833,169.5 232.167,169.5 222.5,169.5C 222.5,168.167 222.5,166.833 222.5,165.5C 226.153,163.717 226.486,161.384 223.5,158.5C 224.301,156.958 224.634,155.292 224.5,153.5C 229.402,151.735 230.735,148.402 228.5,143.5C 231.424,136.727 233.758,129.727 235.5,122.5C 234.968,118.456 232.968,115.289 229.5,113C 213.392,108.982 197.059,106.482 180.5,105.5C 179.421,103.457 177.754,102.124 175.5,101.5C 175.5,100.167 175.5,98.8333 175.5,97.5C 176.833,97.5 178.167,97.5 179.5,97.5C 179.5,96.1667 179.5,94.8333 179.5,93.5C 178.167,93.5 176.833,93.5 175.5,93.5C 175.5,92.1667 175.5,90.8333 175.5,89.5C 174.167,89.5 172.833,89.5 171.5,89.5C 171.5,90.8333 171.5,92.1667 171.5,93.5C 170.167,93.5 168.833,93.5 167.5,93.5C 167.5,94.8333 167.5,96.1667 167.5,97.5C 168.833,97.5 170.167,97.5 171.5,97.5C 171.5,98.8333 171.5,100.167 171.5,101.5C 169.251,102.08 167.585,103.413 166.5,105.5C 151.679,106.07 137.012,107.903 122.5,111C 115.479,112.189 111.813,116.355 111.5,123.5C 113.208,129.918 115.208,136.252 117.5,142.5C 117.336,145.187 117.503,147.854 118,150.5C 119.129,152.141 120.629,153.141 122.5,153.5C 122.5,155.167 122.5,156.833 122.5,158.5C 119.51,161.863 120.176,164.196 124.5,165.5C 124.5,166.833 124.5,168.167 124.5,169.5C 114.833,169.5 105.167,169.5 95.5,169.5C 63.5,169.5 31.5,169.5 -0.5,169.5C -0.5,145.5 -0.5,121.5 -0.5,97.5C 9.83333,42.5 42.5,9.83333 97.5,-0.5 Z"/></g>
<g><path style="opacity:1" fill="#fedb5a" d="M 175.5,101.5 C 174.167,101.5 172.833,101.5 171.5,101.5C 171.5,100.167 171.5,98.8333 171.5,97.5C 170.167,97.5 168.833,97.5 167.5,97.5C 167.5,96.1667 167.5,94.8333 167.5,93.5C 168.833,93.5 170.167,93.5 171.5,93.5C 171.5,92.1667 171.5,90.8333 171.5,89.5C 172.833,89.5 174.167,89.5 175.5,89.5C 175.5,90.8333 175.5,92.1667 175.5,93.5C 176.833,93.5 178.167,93.5 179.5,93.5C 179.5,94.8333 179.5,96.1667 179.5,97.5C 178.167,97.5 176.833,97.5 175.5,97.5C 175.5,98.8333 175.5,100.167 175.5,101.5 Z"/></g>
<g><path style="opacity:1" fill="#494998" d="M 171.5,101.5 C 172.833,101.5 174.167,101.5 175.5,101.5C 177.754,102.124 179.421,103.457 180.5,105.5C 181.714,108.129 181.714,110.796 180.5,113.5C 179.5,113.5 178.5,113.5 177.5,113.5C 174.833,113.5 172.167,113.5 169.5,113.5C 168.5,113.5 167.5,113.5 166.5,113.5C 165.167,110.833 165.167,108.167 166.5,105.5C 167.585,103.413 169.251,102.08 171.5,101.5 Z"/></g>
<g><path style="opacity:1" fill="#fedd5a" d="M 166.5,105.5 C 165.167,108.167 165.167,110.833 166.5,113.5C 159.127,114.792 151.96,116.792 145,119.5C 144.333,122.5 144.333,125.5 145,128.5C 146.153,132.787 146.987,137.121 147.5,141.5C 144.956,141.104 142.789,141.771 141,143.5C 140.617,142.944 140.117,142.611 139.5,142.5C 138.567,135.999 137.567,129.499 136.5,123C 136.58,121.106 136.913,119.273 137.5,117.5C 137,117.167 136.5,116.833 136,116.5C 131.849,117.386 127.682,118.22 123.5,119C 120.125,120.029 118.958,122.196 120,125.5C 122.137,130.745 123.97,136.078 125.5,141.5C 122.794,141.575 120.127,141.908 117.5,142.5C 115.208,136.252 113.208,129.918 111.5,123.5C 111.813,116.355 115.479,112.189 122.5,111C 137.012,107.903 151.679,106.07 166.5,105.5 Z"/></g>
<g><path style="opacity:1" fill="#ffdd59" d="M 180.5,105.5 C 197.059,106.482 213.392,108.982 229.5,113C 232.968,115.289 234.968,118.456 235.5,122.5C 233.758,129.727 231.424,136.727 228.5,143.5C 226.521,141.832 224.188,141.166 221.5,141.5C 223.026,136.09 224.859,130.756 227,125.5C 227.926,121.747 226.426,119.58 222.5,119C 218.24,118.43 214.074,117.597 210,116.5C 210.314,125.614 209.147,134.614 206.5,143.5C 204.013,142.677 201.679,141.677 199.5,140.5C 200.112,134.775 201.112,129.108 202.5,123.5C 202.379,122.106 202.046,120.772 201.5,119.5C 194.622,117.031 187.622,115.031 180.5,113.5C 181.714,110.796 181.714,108.129 180.5,105.5 Z"/></g>
<g><path style="opacity:1" fill="#ffe059" d="M 169.5,113.5 C 172.167,113.5 174.833,113.5 177.5,113.5C 177.5,123.167 177.5,132.833 177.5,142.5C 174.796,141.286 172.129,141.286 169.5,142.5C 169.5,132.833 169.5,123.167 169.5,113.5 Z"/></g>
<g><path style="opacity:1" fill="#ff4e55" d="M 166.5,113.5 C 167.5,113.5 168.5,113.5 169.5,113.5C 169.5,123.167 169.5,132.833 169.5,142.5C 169.196,143.15 168.863,143.817 168.5,144.5C 162.5,145.833 156.5,145.833 150.5,144.5C 149.812,143.145 148.812,142.145 147.5,141.5C 146.987,137.121 146.153,132.787 145,128.5C 144.333,125.5 144.333,122.5 145,119.5C 151.96,116.792 159.127,114.792 166.5,113.5 Z"/></g>
<g><path style="opacity:1" fill="#ff4d55" d="M 177.5,113.5 C 178.5,113.5 179.5,113.5 180.5,113.5C 187.622,115.031 194.622,117.031 201.5,119.5C 202.046,120.772 202.379,122.106 202.5,123.5C 201.112,129.108 200.112,134.775 199.5,140.5C 196.781,144.535 192.781,146.202 187.5,145.5C 184.5,145.167 181.5,144.833 178.5,144.5C 178.137,143.817 177.804,143.15 177.5,142.5C 177.5,132.833 177.5,123.167 177.5,113.5 Z"/></g>
<g><path style="opacity:1" fill="#ff5055" d="M 139.5,142.5 C 139.5,143.5 139.5,144.5 139.5,145.5C 135.833,145.5 132.167,145.5 128.5,145.5C 127.488,144.128 126.488,142.795 125.5,141.5C 123.97,136.078 122.137,130.745 120,125.5C 118.958,122.196 120.125,120.029 123.5,119C 127.682,118.22 131.849,117.386 136,116.5C 136.5,116.833 137,117.167 137.5,117.5C 136.913,119.273 136.58,121.106 136.5,123C 137.567,129.499 138.567,135.999 139.5,142.5 Z"/></g>
<g><path style="opacity:1" fill="#ff5055" d="M 221.5,141.5 C 220.188,142.145 219.188,143.145 218.5,144.5C 216.5,144.833 214.5,145.167 212.5,145.5C 210.048,145.461 208.048,144.794 206.5,143.5C 209.147,134.614 210.314,125.614 210,116.5C 214.074,117.597 218.24,118.43 222.5,119C 226.426,119.58 227.926,121.747 227,125.5C 224.859,130.756 223.026,136.09 221.5,141.5 Z"/></g>
<g><path style="opacity:1" fill="#ffbd50" d="M 125.5,141.5 C 126.488,142.795 127.488,144.128 128.5,145.5C 129.371,150.451 127.371,153.118 122.5,153.5C 120.629,153.141 119.129,152.141 118,150.5C 117.503,147.854 117.336,145.187 117.5,142.5C 120.127,141.908 122.794,141.575 125.5,141.5 Z"/></g>
<g><path style="opacity:1" fill="#ffbf50" d="M 199.5,140.5 C 201.679,141.677 204.013,142.677 206.5,143.5C 208.048,144.794 210.048,145.461 212.5,145.5C 214.5,145.167 216.5,144.833 218.5,144.5C 219.188,143.145 220.188,142.145 221.5,141.5C 224.188,141.166 226.521,141.832 228.5,143.5C 230.735,148.402 229.402,151.735 224.5,153.5C 219.878,153.545 217.545,151.212 217.5,146.5C 214.167,146.5 210.833,146.5 207.5,146.5C 207.65,150.683 205.65,153.016 201.5,153.5C 197.35,153.016 195.35,150.683 195.5,146.5C 190.167,146.5 184.833,146.5 179.5,146.5C 179.628,150.874 177.462,153.208 173,153.5C 169.118,152.784 167.285,150.451 167.5,146.5C 162.167,146.5 156.833,146.5 151.5,146.5C 151.583,150.918 149.416,153.251 145,153.5C 140.637,152.629 138.803,149.962 139.5,145.5C 139.5,144.5 139.5,143.5 139.5,142.5C 140.117,142.611 140.617,142.944 141,143.5C 142.789,141.771 144.956,141.104 147.5,141.5C 148.812,142.145 149.812,143.145 150.5,144.5C 156.5,145.833 162.5,145.833 168.5,144.5C 168.863,143.817 169.196,143.15 169.5,142.5C 172.129,141.286 174.796,141.286 177.5,142.5C 177.804,143.15 178.137,143.817 178.5,144.5C 181.5,144.833 184.5,145.167 187.5,145.5C 192.781,146.202 196.781,144.535 199.5,140.5 Z"/></g>
<g><path style="opacity:1" fill="#fedc57" d="M 128.5,145.5 C 132.167,145.5 135.833,145.5 139.5,145.5C 138.803,149.962 140.637,152.629 145,153.5C 149.416,153.251 151.583,150.918 151.5,146.5C 156.833,146.5 162.167,146.5 167.5,146.5C 167.285,150.451 169.118,152.784 173,153.5C 177.462,153.208 179.628,150.874 179.5,146.5C 184.833,146.5 190.167,146.5 195.5,146.5C 195.35,150.683 197.35,153.016 201.5,153.5C 205.65,153.016 207.65,150.683 207.5,146.5C 210.833,146.5 214.167,146.5 217.5,146.5C 217.545,151.212 219.878,153.545 224.5,153.5C 224.634,155.292 224.301,156.958 223.5,158.5C 219.149,157.533 216.815,159.2 216.5,163.5C 211.193,164.026 206.193,163.36 201.5,161.5C 199.947,158.746 197.614,157.913 194.5,159C 192.963,160.11 192.297,161.61 192.5,163.5C 187.193,164.026 182.193,163.36 177.5,161.5C 175.473,158.164 172.807,157.664 169.5,160C 168.663,161.011 168.33,162.178 168.5,163.5C 163.695,164.487 158.695,164.821 153.5,164.5C 155.142,160.777 153.809,158.777 149.5,158.5C 146.18,158.638 144.513,160.305 144.5,163.5C 139.695,164.487 134.695,164.821 129.5,164.5C 130.728,162.99 130.728,161.49 129.5,160C 127.323,158.798 124.989,158.298 122.5,158.5C 122.5,156.833 122.5,155.167 122.5,153.5C 127.371,153.118 129.371,150.451 128.5,145.5 Z"/></g>
<g><path style="opacity:1" fill="#5b5194" d="M 122.5,158.5 C 124.989,158.298 127.323,158.798 129.5,160C 130.728,161.49 130.728,162.99 129.5,164.5C 127.883,165.038 126.216,165.371 124.5,165.5C 120.176,164.196 119.51,161.863 122.5,158.5 Z"/></g>
<g><path style="opacity:1" fill="#ff5c55" d="M 153.5,164.5 C 150.222,166.107 147.222,165.773 144.5,163.5C 144.513,160.305 146.18,158.638 149.5,158.5C 153.809,158.777 155.142,160.777 153.5,164.5 Z"/></g>
<g><path style="opacity:1" fill="#515096" d="M 177.5,161.5 C 176.618,165.143 174.284,166.31 170.5,165C 169.956,164.283 169.289,163.783 168.5,163.5C 168.33,162.178 168.663,161.011 169.5,160C 172.807,157.664 175.473,158.164 177.5,161.5 Z"/></g>
<g><path style="opacity:1" fill="#ff5755" d="M 201.5,161.5 C 200.618,165.143 198.284,166.31 194.5,165C 193.956,164.283 193.289,163.783 192.5,163.5C 192.297,161.61 192.963,160.11 194.5,159C 197.614,157.913 199.947,158.746 201.5,161.5 Z"/></g>
<g><path style="opacity:1" fill="#534f96" d="M 223.5,158.5 C 226.486,161.384 226.153,163.717 222.5,165.5C 220.142,165.747 218.142,165.081 216.5,163.5C 216.815,159.2 219.149,157.533 223.5,158.5 Z"/></g>
<g><path style="opacity:1" fill="#fed250" d="M 177.5,161.5 C 182.193,163.36 187.193,164.026 192.5,163.5C 193.289,163.783 193.956,164.283 194.5,165C 198.284,166.31 200.618,165.143 201.5,161.5C 206.193,163.36 211.193,164.026 216.5,163.5C 218.142,165.081 220.142,165.747 222.5,165.5C 222.5,166.833 222.5,168.167 222.5,169.5C 189.833,169.5 157.167,169.5 124.5,169.5C 124.5,168.167 124.5,166.833 124.5,165.5C 126.216,165.371 127.883,165.038 129.5,164.5C 134.695,164.821 139.695,164.487 144.5,163.5C 147.222,165.773 150.222,166.107 153.5,164.5C 158.695,164.821 163.695,164.487 168.5,163.5C 169.289,163.783 169.956,164.283 170.5,165C 174.284,166.31 176.618,165.143 177.5,161.5 Z"/></g>
<g><path style="opacity:0.749" fill="#9e4878" d="M -0.5,170.5 C -0.5,170.167 -0.5,169.833 -0.5,169.5C 31.5,169.5 63.5,169.5 95.5,169.5C 95.1667,170.5 94.5,171.167 93.5,171.5C 62.3378,170.502 31.0044,170.168 -0.5,170.5 Z"/></g>
<g><path style="opacity:0.749" fill="#9d4878" d="M 251.5,169.5 C 338.167,169.5 424.833,169.5 511.5,169.5C 511.5,169.833 511.5,170.167 511.5,170.5C 425.332,170.167 339.332,170.501 253.5,171.5C 252.5,171.167 251.833,170.5 251.5,169.5 Z"/></g>
<g><path style="opacity:1" fill="#41479a" d="M -0.5,170.5 C 31.0044,170.168 62.3378,170.502 93.5,171.5C 92.3384,222.429 92.1717,273.429 93,324.5C 94.0616,329.875 95.2282,335.208 96.5,340.5C 64.1667,340.5 31.8333,340.5 -0.5,340.5C -0.5,283.833 -0.5,227.167 -0.5,170.5 Z"/></g>
<g><path style="opacity:1" fill="#fe4d56" d="M 95.5,169.5 C 105.167,169.5 114.833,169.5 124.5,169.5C 157.167,169.5 189.833,169.5 222.5,169.5C 232.167,169.5 241.833,169.5 251.5,169.5C 251.833,170.5 252.5,171.167 253.5,171.5C 254.662,222.429 254.828,273.429 254,324.5C 252.725,329.817 251.559,335.151 250.5,340.5C 232.176,384.169 199.509,402.002 152.5,394C 124.841,385.506 106.175,367.673 96.5,340.5C 95.2282,335.208 94.0616,329.875 93,324.5C 92.1717,273.429 92.3384,222.429 93.5,171.5C 94.5,171.167 95.1667,170.5 95.5,169.5 Z"/></g>
<g><path style="opacity:1" fill="#41479a" d="M 511.5,170.5 C 511.5,227.167 511.5,283.833 511.5,340.5C 424.5,340.5 337.5,340.5 250.5,340.5C 251.559,335.151 252.725,329.817 254,324.5C 254.828,273.429 254.662,222.429 253.5,171.5C 339.332,170.501 425.332,170.167 511.5,170.5 Z"/></g>
<g><path style="opacity:1" fill="#f5f2f2" d="M 203.5,182.5 C 201.562,186.043 199.895,189.71 198.5,193.5C 197.263,194.965 196.263,196.632 195.5,198.5C 193.963,201.685 194.63,204.352 197.5,206.5C 181.5,206.5 165.5,206.5 149.5,206.5C 150.685,205.143 151.685,203.643 152.5,202C 152.192,200.541 151.525,199.374 150.5,198.5C 148.164,193.162 145.831,187.829 143.5,182.5C 143.5,181.5 143.5,180.5 143.5,179.5C 150.887,180.064 158.221,181.064 165.5,182.5C 167.912,187.659 170.579,192.659 173.5,197.5C 176.421,192.659 179.088,187.659 181.5,182.5C 188.393,180.572 195.393,179.739 202.5,180C 203.252,180.671 203.586,181.504 203.5,182.5 Z"/></g>
<g><path style="opacity:1" fill="#f8bec1" d="M 245.5,220.5 C 246.498,250.662 246.831,280.995 246.5,311.5C 245.209,311.737 244.209,311.404 243.5,310.5C 245.492,280.852 246.159,250.852 245.5,220.5 Z"/></g>
<g><path style="opacity:1" fill="#f4f2f2" d="M 139.5,207.5 C 141.305,227.937 142.139,248.604 142,269.5C 145.056,282.89 153.223,291.39 166.5,295C 185.914,297.049 198.747,288.882 205,270.5C 205.5,249.836 205.667,229.169 205.5,208.5C 211.713,205.811 217.546,202.477 223,198.5C 223.958,196.801 224.458,194.967 224.5,193C 223.797,190.171 223.63,187.338 224,184.5C 225.808,182.604 227.975,182.104 230.5,183C 239.513,193.864 244.513,206.364 245.5,220.5C 246.159,250.852 245.492,280.852 243.5,310.5C 230.268,304.443 219.601,295.276 211.5,283C 208.691,281.259 205.691,280.092 202.5,279.5C 204.833,287.5 207.167,295.5 209.5,303.5C 206.833,304.167 204.167,304.833 201.5,305.5C 199.135,306.008 196.801,306.675 194.5,307.5C 190.806,304.473 187.473,301.14 184.5,297.5C 183.024,299.42 182.024,301.587 181.5,304C 188.84,326.676 195.34,349.51 201,372.5C 182.602,383.13 164.269,383.13 146,372.5C 151.317,349.411 157.817,326.578 165.5,304C 164.722,301.61 163.555,299.443 162,297.5C 159.049,300.572 156.216,303.739 153.5,307C 150.843,307.175 148.176,307.008 145.5,306.5C 143.152,304.903 140.486,303.903 137.5,303.5C 139.833,295.5 142.167,287.5 144.5,279.5C 141.072,279.547 138.072,280.713 135.5,283C 127.023,295.983 115.689,305.483 101.5,311.5C 100.333,281.172 100.167,250.839 101,220.5C 102.251,207.669 106.584,196.002 114,185.5C 116.706,182.022 119.706,181.689 123,184.5C 123.305,187.497 123.138,190.497 122.5,193.5C 122.515,195.634 123.015,197.634 124,199.5C 128.833,202.833 133.999,205.5 139.5,207.5 Z"/></g>
<g><path style="opacity:1" fill="#aa4f54" d="M 149.5,206.5 C 165.5,206.5 181.5,206.5 197.5,206.5C 200.698,205.964 203.365,206.631 205.5,208.5C 205.667,229.169 205.5,249.836 205,270.5C 198.747,288.882 185.914,297.049 166.5,295C 153.223,291.39 145.056,282.89 142,269.5C 142.139,248.604 141.305,227.937 139.5,207.5C 142.728,206.586 146.061,206.253 149.5,206.5 Z"/></g>
<g><path style="opacity:1" fill="#fe4b54" d="M 179.5,256.5 C 186.833,256.5 194.167,256.5 201.5,256.5C 203.188,273.813 195.855,285.146 179.5,290.5C 179.5,279.167 179.5,267.833 179.5,256.5 Z"/></g>
<g><path style="opacity:1" fill="#fe4c56" d="M 145.5,256.5 C 152.833,256.5 160.167,256.5 167.5,256.5C 167.5,267.833 167.5,279.167 167.5,290.5C 150.674,285.553 143.341,274.22 145.5,256.5 Z"/></g>
<g><path style="opacity:1" fill="#f3a5a9" d="M 145.5,243.5 C 152.833,243.5 160.167,243.5 167.5,243.5C 160.352,244.492 153.019,244.825 145.5,244.5C 145.5,248.167 145.5,251.833 145.5,255.5C 153.019,255.175 160.352,255.508 167.5,256.5C 160.167,256.5 152.833,256.5 145.5,256.5C 144.167,252.167 144.167,247.833 145.5,243.5 Z"/></g>
<g><path style="opacity:1" fill="#f5f3f3" d="M 167.5,210.5 C 171.5,210.5 175.5,210.5 179.5,210.5C 179.5,221.5 179.5,232.5 179.5,243.5C 186.833,243.5 194.167,243.5 201.5,243.5C 201.5,247.5 201.5,251.5 201.5,255.5C 193.981,255.175 186.648,255.508 179.5,256.5C 179.5,267.833 179.5,279.167 179.5,290.5C 175.5,291.833 171.5,291.833 167.5,290.5C 167.5,279.167 167.5,267.833 167.5,256.5C 160.352,255.508 153.019,255.175 145.5,255.5C 145.5,251.833 145.5,248.167 145.5,244.5C 153.019,244.825 160.352,244.492 167.5,243.5C 167.5,232.5 167.5,221.5 167.5,210.5 Z"/></g>
<g><path style="opacity:1" fill="#fe4b55" d="M 179.5,210.5 C 186.833,210.5 194.167,210.5 201.5,210.5C 201.5,221.5 201.5,232.5 201.5,243.5C 194.167,243.5 186.833,243.5 179.5,243.5C 179.5,232.5 179.5,221.5 179.5,210.5 Z"/></g>
<g><path style="opacity:1" fill="#fe4c56" d="M 167.5,210.5 C 167.5,221.5 167.5,232.5 167.5,243.5C 160.167,243.5 152.833,243.5 145.5,243.5C 145.5,232.5 145.5,221.5 145.5,210.5C 152.833,210.5 160.167,210.5 167.5,210.5 Z"/></g>
<g><path style="opacity:1" fill="#fed45f" d="M 198.5,193.5 C 199.823,195.686 201.823,197.186 204.5,198C 201.518,198.498 198.518,198.665 195.5,198.5C 196.263,196.632 197.263,194.965 198.5,193.5 Z"/></g>
<g><path style="opacity:1" fill="#ffdf5c" d="M 203.5,182.5 C 208.179,182.334 212.845,182.501 217.5,183C 213.086,189.766 206.753,193.266 198.5,193.5C 199.895,189.71 201.562,186.043 203.5,182.5 Z"/></g>
<g><path style="opacity:1" fill="#ffdb5b" d="M 143.5,182.5 C 145.831,187.829 148.164,193.162 150.5,198.5C 147.482,198.665 144.482,198.498 141.5,198C 143.664,197.086 145.664,195.919 147.5,194.5C 143.568,192.967 139.568,191.634 135.5,190.5C 133.31,188.144 131.31,185.644 129.5,183C 134.155,182.501 138.821,182.334 143.5,182.5 Z"/></g>
<g><path style="opacity:1" fill="#ffdd5a" d="M 137.5,303.5 C 140.486,303.903 143.152,304.903 145.5,306.5C 142.845,311.139 140.179,315.806 137.5,320.5C 139.741,320.498 142.074,320.832 144.5,321.5C 145.706,323.516 145.706,325.516 144.5,327.5C 140.693,329.286 136.693,330.452 132.5,331C 129.611,337.663 127.111,344.497 125,351.5C 122.568,352.45 120.068,352.45 117.5,351.5C 117.688,347.936 118.688,344.603 120.5,341.5C 120.167,341.167 119.833,340.833 119.5,340.5C 117.116,342.885 114.45,344.885 111.5,346.5C 109.308,345.141 107.641,343.308 106.5,341C 109.98,338.354 113.314,335.521 116.5,332.5C 113.914,331.52 111.247,331.187 108.5,331.5C 108.5,328.833 108.5,326.167 108.5,323.5C 114.509,323.666 120.509,323.499 126.5,323C 130.423,316.594 134.089,310.094 137.5,303.5 Z"/></g>
<g><path style="opacity:1" fill="#ffdc5a" d="M 209.5,303.5 C 212.553,309.938 215.886,316.271 219.5,322.5C 225.798,323.496 232.132,323.83 238.5,323.5C 238.5,326.167 238.5,328.833 238.5,331.5C 235.482,331.335 232.482,331.502 229.5,332C 233.167,335 236.833,338 240.5,341C 239.174,343.158 237.507,344.992 235.5,346.5C 232.55,344.885 229.884,342.885 227.5,340.5C 227.167,340.833 226.833,341.167 226.5,341.5C 227.909,344.727 228.909,348.06 229.5,351.5C 226.833,351.833 224.167,352.167 221.5,352.5C 219.91,344.893 217.244,337.727 213.5,331C 209.553,329.846 205.553,329.013 201.5,328.5C 201.575,325.794 201.908,323.127 202.5,320.5C 204.949,321.057 207.282,321.057 209.5,320.5C 206.554,315.605 203.887,310.605 201.5,305.5C 204.167,304.833 206.833,304.167 209.5,303.5 Z"/></g>
<g><path style="opacity:0.999" fill="#f4f4f4" d="M -0.5,340.5 C 31.8333,340.5 64.1667,340.5 96.5,340.5C 106.175,367.673 124.841,385.506 152.5,394C 199.509,402.002 232.176,384.169 250.5,340.5C 337.5,340.5 424.5,340.5 511.5,340.5C 511.5,364.833 511.5,389.167 511.5,413.5C 501.167,468.5 468.5,501.167 413.5,511.5C 308.167,511.5 202.833,511.5 97.5,511.5C 42.5,501.167 9.83333,468.5 -0.5,413.5C -0.5,389.167 -0.5,364.833 -0.5,340.5 Z"/></g>
</svg>
